<svg version="1.1" id="レイヤー_1" xmlns="http://www.w3.org/2000/svg" xmlns:xlink="http://www.w3.org/1999/xlink" x="0" y="0" viewBox="0 0 32 32" style="enable-background:new 0 0 32 32" xml:space="preserve"><style>.st1{fill:#fff}.st2{fill:#302c2b}.st3{fill:#fdcf90}</style><defs><path id="SVGID_1_" d="M.1 5.5h31.8v20.9H.1z"/></defs><clipPath id="SVGID_00000054237067169584006740000009601945185369505695_"><use xlink:href="#SVGID_1_" style="overflow:visible"/></clipPath><g style="clip-path:url(#SVGID_00000054237067169584006740000009601945185369505695_)"><path class="st1" d="m29.4 16.8-.5-1.2-.9-1.8-.7-.8-.6-.8-.6-.2-.9-1.3-.9-1-1.4-.6-1.6-.8-1.4-.3-2.2-.4h-2.2l-1.3.2-2.1.6-1.7.6-1.6 1.2L7 11l-1.2 1.6-1 1.2-1.4 2.6-.8 3.5 3.4.5c.9-4.8 5.2-9.1 10.3-9.1 5 0 9.3 3.6 10.3 8.5h3.5v-1.2l-.7-1.8z"/><path class="st2" d="M11.8 16.3c0 .1 0 .2.1.4.1.4.4.7.8.8.1.1.3.1.4.1h.2c.1 0 .2 0 .3-.1.3-.1.5-.3.5-.6 0-.1 0-.1-.1-.1h-.1c-.2 0-.3 0-.5-.1-.4-.1-.8-.3-1.1-.5-.1-.1-.2-.1-.3-.2-.1-.1-.1 0-.2 0v.3m2.2-.1h.4c.4-.1.6-.5.5-.8 0-.1-.1-.1-.1-.1h-.1c-.3 0-.5-.1-.8-.2-.5-.2-.9-.5-1.3-.8l-.4-.4c-.1-.1-.1-.1-.1 0-.2.2-.3.4-.3.6 0 .4.2.8.5 1.1.3.2.5.4.8.6.2-.1.5-.1.9 0m-1.8-3.9c0 .1 0 .2.1.4.1.4.4.7.7 1 .5.4 1.1.7 1.7.9h.3c.2 0 .3-.1.5-.1.2-.1.4-.3.4-.6 0-.2-.1-.3-.2-.5 0-.1-.1-.1-.2-.1s-.2 0-.3-.1c-.4-.1-.8-.3-1.2-.5-.5-.3-.9-.6-1.2-1.1-.1-.1-.1-.1-.2 0-.3.1-.4.3-.4.7m1.9 5.6.1.1c.3.2.6.3 1 .5.3.1.6.2.9.2h1.1c.5-.1.9-.2 1.3-.5.5-.3.9-.7 1.2-1.1.2-.4.4-.8.5-1.3.1-.3.1-.5.1-.8v-.7c0-.3-.1-.6-.2-.9-.1-.4-.3-.8-.5-1.2-.1-.2-.2-.4-.3-.7-.1-.4-.1-.8-.1-1.2.1-.4.2-.7.4-1 .4-.3.6-.6.8-.9.2-.2.3-.4.5-.7.1-.2.2-.5.2-.7 0-.3-.1-.6-.4-.7-.2-.1-.4-.2-.6-.2-.4 0-.7.1-1 .3-.3.2-.6.4-.8.7-.3.4-.6.9-.7 1.3-.1.4-.2.8-.2 1.2v.8c0 .1-.2.2-.3.2 0 0-.1 0-.1-.1l-.1-.1c-.2-.2-.3-.3-.5-.4-.3-.3-.7-.5-1.2-.6-.3-.1-.7-.1-1-.1-.3 0-.6.1-.8.3-.3.1-.4.3-.4.6v.3c0 .3.1.6.2.8.1.2.3.4.5.5.4.3.8.5 1.3.7.4.1.7.2 1.1.2.1 0 .2 0 .3-.1.1 0 .1-.1.1-.2v-.3c0-.2-.1-.4-.3-.5-.1-.1-.3-.2-.5-.3-.1-.1-.2-.1-.4-.2-.1 0-.1-.1-.2-.2 0-.2.1-.3.3-.3h.1c.2.1.3.1.5.2.3.1.5.4.7.6.1.1.1.1.1 0s.1-.2.1-.2c.1-.1.1-.1.2-.1.2 0 .3.2.2.3v.1c0 .1 0 .1-.1.2-.2.4-.3.8-.3 1.2v.8c0 .4.1.7.3 1l.3.6c0 .1.1.1.1.2v.2c-.1.1-.2.2-.3.1 0 0-.1 0-.1-.1l-.1-.1c-.2-.3-.3-.7-.4-1-.1-.4-.2-.8-.2-1.2v-.2c0-.1 0-.1-.1-.1s-.1 0-.2.1c-.1 0-.1 0-.1.2.3.6 0 1.3-.7 1.6h-.1c-.1 0-.1 0-.1.1v.5c-.1.4-.3.7-.6.9 0 0-.1 0-.1.1l-.1.1v.2c.2.4 0 .8-.3 1M2.5 19.6v-.2c.4-2.6 1.5-5 3.1-7 .4-.4.8-.8 1.1-1.2C8.2 9.8 10 8.7 12 8c.6-.2 1.3-.4 2-.5.3-.1.6-.1.9-.1.3 0 .5 0 .8-.1h1.7s.1 0 .1-.1c.1-.2.3-.4.4-.6.3-.4.8-.8 1.3-1 .2-.1.4-.1.6-.1h.5c.2 0 .5.1.7.2.5.3.7.7.8 1.3 0 .2 0 .4-.1.6-.1.1-.1.3-.2.4v.1c.7.3 1.4.6 2.1 1 2.9 1.7 5.2 4.5 6.3 7.7.3.8.5 1.5.6 2.3 0 .1 0 .3.1.4v.1h-.5c0-.2-.1-.4-.1-.7-.1-.8-.3-1.5-.6-2.2-.8-2.2-2.1-4.1-3.8-5.7-.6-.6-1.3-1.1-2-1.5-.7-.4-1.4-.8-2.2-1.1h-.1c-.1.2-.2.3-.4.5s-.3.5-.4.7c-.1.3-.2.5-.2.8 0 .3 0 .5.1.8 0 .1.1.1.1.1.8.3 1.6.7 2.3 1.3.7.5 1.4 1.1 2 1.8 1.1 1.3 1.9 3 2.2 4.7 0 .1.1.8.1.9l-.4-.2c-.1-.4-.3-1.1-.4-1.5-.4-1.5-1.2-2.8-2.2-3.9-.5-.6-1.2-1.1-1.8-1.6-.5-.3-1-.6-1.5-.8h-.1v.1c.1.2.2.4.2.6.2.6.4 1.3.4 2v.7c-.1.4-.2.9-.4 1.3-.3.8-.9 1.5-1.7 2-.4.2-.8.4-1.3.5-.2 0-.4.1-.7.1h-.7c-.2 0-.4-.1-.5-.1-.5-.1-1.1-.3-1.5-.6-.2-.1-.4-.2-.6-.4-.1 0-.2-.1-.2-.1h-.5c-.8-.2-1.4-.7-1.6-1.6v-.4c0-.2.1-.4.2-.5.1-.1.1-.1 0-.1-.1-.1-.1-.2-.2-.3 0-.1-.1-.2-.1-.4 0-.1-.1-.2-.1-.3 0-.5.1-1 .6-1.3.1-.1.1-.1.1-.2s-.1-.2-.1-.2c0-.1 0-.1-.1-.1-1.1.6-2 1.4-2.8 2.3-.9 1.1-1.6 2.4-2 3.7-.1.3-.2.7-.2 1H6l.3-1.2c.6-2 1.7-3.7 3.3-5 .6-.5 1.2-.9 1.9-1.3l.1-.1c0-.2.1-.4.2-.6.1-.2.3-.3.5-.4.1 0 .1-.1.1-.2v-.7c0-.3.2-.6.4-.8.4-.4.8-.5 1.3-.6.3 0 .5 0 .8.1.4.1.8.2 1.2.4.2.1.4.2.6.4h.1v-.3c0-.3.1-.5.1-.8.1-.2.1-.5.2-.7 0-.1 0-.1-.1-.1h-1c-.3 0-.7 0-1 .1-.3 0-.6.1-.9.1-.5.1-1 .2-1.4.3-1.1.3-2.2.8-3.3 1.4-.7.4-1.4.9-2 1.5-.5.4-.9.8-1.3 1.3-1 1.2-1.8 2.5-2.4 3.9-.3.8-.6 1.7-.8 2.6.1.2.1.4.1.7h-.5v-.1z"/><path class="st3" d="M11.8 16.3c0 .1 0 .2.1.4.1.4.4.7.8.8.1.1.3.1.4.1h.2c.1 0 .2 0 .3-.1.3-.1.5-.3.5-.6 0-.1 0-.1-.1-.1h-.1c-.2 0-.3 0-.5-.1-.4-.1-.8-.3-1.1-.5-.1-.1-.2-.1-.3-.2-.1-.1-.1 0-.2 0v.3M14 16.2h.4c.4-.1.6-.5.5-.8 0-.1-.1-.1-.1-.1h-.1c-.3 0-.5-.1-.8-.2-.5-.2-.9-.5-1.3-.8l-.4-.4c-.1-.1-.1-.1-.1 0-.2.2-.3.4-.3.6 0 .4.2.8.5 1.1.3.2.5.4.8.6.2-.1.5-.1.9 0M12.2 12.3c0 .1 0 .2.1.4.1.4.4.7.7 1 .5.4 1.1.7 1.7.9h.3c.2 0 .3-.1.5-.1.2-.1.4-.3.4-.6 0-.2-.1-.3-.2-.5 0-.1-.1-.1-.2-.1s-.2 0-.3-.1c-.4-.1-.8-.3-1.2-.5-.5-.3-.9-.6-1.2-1.1-.1-.1-.1-.1-.2 0-.3.1-.4.3-.4.7"/><path class="st3" d="m14.1 17.9.1.1c.3.2.6.3 1 .5.3.1.6.2.9.2h1.1c.5-.1.9-.2 1.3-.5.5-.3.9-.7 1.2-1.1.2-.4.4-.8.5-1.3.1-.3.1-.5.1-.8v-.7c0-.3-.1-.6-.2-.9-.1-.4-.3-.8-.5-1.2-.1-.2-.2-.4-.3-.7-.1-.4-.1-.8-.1-1.2.1-.4.2-.7.4-1 .4-.3.6-.6.8-.9.2-.2.3-.4.5-.7.1-.2.2-.5.2-.7 0-.3-.1-.6-.4-.7-.2-.1-.4-.2-.6-.2-.4 0-.7.1-1 .3-.3.2-.6.4-.8.7-.3.4-.6.9-.7 1.3-.1.4-.2.8-.2 1.2v.8c0 .1-.2.2-.3.2 0 0-.1 0-.1-.1l-.1-.1c-.2-.2-.3-.3-.5-.4-.3-.3-.7-.5-1.2-.6-.3-.1-.7-.1-1-.1-.3 0-.6.1-.8.3-.3.1-.4.3-.4.6v.3c0 .3.1.6.2.8.1.2.3.4.5.5.4.3.8.5 1.3.7.4.1.7.2 1.1.2.1 0 .2 0 .3-.1.1 0 .1-.1.1-.2v-.3c0-.2-.1-.4-.3-.5-.1-.1-.3-.2-.5-.3-.1-.1-.2-.1-.4-.2-.1 0-.1-.1-.2-.2 0-.2.1-.3.3-.3h.1c.2.1.3.1.5.2.3.1.5.4.7.6.1.1.1.1.1 0s.1-.2.1-.2c.1-.1.1-.1.2-.1.2 0 .3.2.2.3v.1c0 .1 0 .1-.1.2-.2.4-.3.8-.3 1.2v.8c0 .4.1.7.3 1l.3.6c0 .1.1.1.1.2v.2c-.1.1-.2.2-.3.1 0 0-.1 0-.1-.1l-.1-.1c-.2-.3-.3-.7-.4-1-.1-.4-.2-.8-.2-1.2v-.2c0-.1 0-.1-.1-.1s-.1 0-.2.1c-.1 0-.1 0-.1.2.3.6 0 1.3-.7 1.6h-.1c-.1 0-.1 0-.1.1v.5c-.1.4-.3.7-.6.9 0 0-.1 0-.1.1l-.1.1v.2c.2.4 0 .8-.3 1"/><path class="st2" d="M6.8 13.2c.5.1.9.4 1.1.8H8s0-.1.1-.2c.1-.2.1-.4 0-.5-.1-.2-.3-.3-.5-.4h-.3c-.2 0-.4.1-.5.3m-.4.7c-.1 0-.2 0-.3.1-.2.1-.4.3-.4.6 0 .2 0 .3.1.5s.3.3.5.4c.2 0 .3 0 .5-.1.2-.2.4-.4.4-.7v-.3c0-.1-.1-.2-.2-.2-.1-.2-.3-.3-.6-.3m2.4-.6c0 .3-.1.5-.2.8-.2.3-.4.5-.7.7-.1 0-.1.1-.1.2-.1.2-.2.5-.4.6-.2.2-.4.3-.7.4-.3.2-.7.2-1 0-.2-.1-.4-.3-.5-.5-.1-.2-.1-.5 0-.8.1-.4.4-.8.7-1.1l.3-.3c.2-.4.6-.8 1-.9.5-.2 1-.1 1.4.3.2.2.3.3.3.5-.1 0-.1.1-.1.1M4.9 18.9c-.3 0-.7-.1-.9-.4-.2-.2-.3-.4-.3-.6 0-.5.1-.9.4-1.3.2-.2.4-.4.6-.5H5c.1 0 .2.1.2.3 0 .1-.1.2-.1.3 0 0-.1.1-.2.1-.2 0-.4.1-.5.3-.1.1-.1.3-.2.4 0 .2 0 .3.1.4.1.1.3.2.5.3h.3c.3-.1.4-.3.5-.5v-.4c-.1-.1-.1-.1-.1 0s-.1.1-.1.2c-.1.1-.2.1-.3 0l-.1-.1v-.2c.1-.1.1-.3.2-.4 0-.1.1-.1.1-.2.1-.2.3-.2.5-.2.2.1.4.1.6.2.1 0 .1 0 .2.1.1 0 .2.2.1.3 0 .1 0 .1-.1.2 0 .1-.1.1-.2.1s-.1 0-.1.1c0 .3 0 .5-.1.7-.1.3-.4.6-.7.8h-.6M10.3 11.5v-.2c-.1-.2-.3-.4-.5-.5h-.1c-.2 0-.3 0-.4.1-.1.1-.2.2-.4.3-.1.1-.1.1 0 .2.2.2.4.5.6.7 0 .1.1.1.1.2h.1c.2-.1.3-.2.5-.4.1-.1.1-.2.1-.4m.8-.2c0 .2-.1.4-.2.6l-.3.3-.9.6c-.1 0-.1.1-.2.1-.2.1-.4 0-.5-.1-.2-.3-.4-.5-.6-.8-.1-.1-.2-.3-.3-.4-.1-.1-.1-.3 0-.5l.1-.1.3-.3c.2-.1.4-.3.6-.4.2-.1.3-.2.5-.2.4-.1.7 0 1 .3.2.2.3.4.4.7.1.1.1.2.1.2M27.7 18.1h.1c.2 0 .4-.1.5-.3.1-.1.1-.2.1-.4s-.2-.5-.3-.7h-.2l-.7.3c-.1.1-.2.1-.4.2-.1 0-.1.1-.1.1 0 .1 0 .1.1.2s.1.2.2.4c.3.2.5.3.7.2m1.4-.3c0 .3-.1.6-.4.8-.3.2-.6.3-.9.3-.4 0-.7-.2-.9-.4-.1-.1-.2-.2-.2-.4-.1-.3-.2-.5-.3-.8 0-.1-.1-.2-.1-.3 0-.1 0-.3.1-.4 0 0 .1-.1.2-.1.4-.2.9-.4 1.3-.6 0 .1.1.1.2.1s.2 0 .3.1c.1.1.1.1.1.2.2.3.3.7.5 1 .1.1.1.3.1.5"/><path class="st2" d="M26.5 14.3c-.1 0-.1 0 0 0-.4.2-.7.4-.9.6l-.1.1h-.3c-.1-.1-.2-.2-.2-.3 0-.1 0-.2.1-.2l.1-.1 1.5-.9c.1-.1.3-.1.4 0l.3.3c.1.1.1.3 0 .4l-.6 1.2v.1s.1 0 .1-.1l.9-.6c.2-.1.3-.1.4.1l.1.1c0 .1.1.1.1.2s0 .2-.1.2c0 0-.1 0-.1.1-.5.3-.9.6-1.4.9-.2.1-.3.1-.5-.1l-.2-.2c-.1-.2-.1-.3 0-.5-.1-.5.1-.9.4-1.3-.1 0 0 0 0 0M22.5 12.3c-.2 0-.3-.1-.4-.2-.1-.1-.1-.2 0-.2.1-.1.1-.2.2-.4 0-.1.1-.1.1-.2v-.1c-.2-.1-.3-.2-.5-.3-.1 0-.2-.1-.3-.1h-.1c-.1.2-.2.3-.3.5-.1.2-.2.2-.4.1-.1 0-.1-.1-.2-.1-.1-.1-.1-.2-.1-.4.2-.3.4-.7.6-1 .1-.2.2-.3.3-.5v-.1c.1-.1.2-.1.3-.1.2 0 .3.1.4.2.1.1.1.2 0 .2 0 .1-.1.2-.2.3 0 .1-.1.1-.1.2v.1c.3.1.5.3.8.4h.1c.1-.1.2-.3.3-.4.1-.1.2-.2.3-.1.1 0 .2.1.3.2.1.1.1.2.1.3-.1.2-.2.4-.4.6l-.6 1c0 .1-.1.1-.2.1M24.2 12.6l.4.4h.1c.1-.2.1-.3.2-.5 0-.1 0-.1-.1-.1h-.1c-.2 0-.3.1-.5.1.1 0 0 .1 0 .1m.8-.9c.1 0 .2 0 .3.1.1.1.3.2.3.3.1.1.1.3.1.5-.1.2-.2.4-.2.6-.1.3-.2.6-.4.9 0 .1 0 .1-.1.1 0 .1-.1.1-.2.1-.2 0-.3-.1-.4-.2-.1-.1-.1-.2 0-.2 0-.1.1-.1.1-.2v-.2c-.2-.2-.5-.4-.7-.6-.1-.1-.1-.1-.2 0-.1 0-.1 0-.2.1-.1 0-.3 0-.3-.1-.1-.1-.1-.2-.2-.3 0-.1 0-.2.1-.2h.1c.6-.2 1.1-.3 1.7-.5 0-.2.1-.2.2-.2M1.6 26.4c-.1 0-.2 0-.4-.1-.4-.1-.7-.4-.8-.8-.1-.3-.1-.6-.1-.8.1-.4.3-.7.7-.8.1 0 .2-.1.4-.1h.1l.9-.3c.4-.2.8-.5 1-.9 0-.1.1-.2.1-.2h-.4c-.2.3-.5.5-.7.8-.1.1-.2.2-.3.2-.2.2-.5.3-.8.3-.6 0-1.1-.4-1.2-1-.1-.4 0-.9.4-1.2l.1-.1.3-.3c.3-.3.5-.6.6-.9.1-.1.1-.2.2-.3l.1-.2c.1-.1.2-.3.3-.4.1-.2.4-.3.7-.3h.1c.2 0 .4 0 .6.1.3.1.5.4.6.7h1c.2 0 .3 0 .5.1.3.1.7.4.8 1.1 0 .4 0 .7-.1 1-.2.7-.5 1.5-.9 2.1-.5.7-1.2 1.3-2 1.7-.5.2-1 .4-1.5.5-.1.1-.2.1-.3.1"/><path class="st1" d="M4.5 20.4h.7c.1 0 .2 0 .3.1.3.1.4.4.4.7 0 .3 0 .6-.1.9-.1.7-.4 1.3-.8 1.9-.4.7-1.1 1.2-1.8 1.5-.4.2-.9.3-1.3.4h-.4c-.2-.1-.4-.2-.4-.4-.1-.2-.1-.4 0-.5 0-.2.2-.3.3-.4.1 0 .2-.1.4-.1.3-.1.6-.2 1-.3.5-.2.9-.6 1.2-1.1.2-.3.3-.6.4-.9v-.1c0-.1 0-.1-.1-.1H3.1c-.1 0-.1 0-.2.1-.2.3-.5.6-.7.8l-.2.2c-.5.4-1 0-1.1-.4-.1-.2 0-.5.2-.7.1-.1.3-.2.4-.4.3-.3.6-.6.7-1 .1-.2.2-.3.2-.5 0-.1.1-.2.2-.2.1-.1.2-.2.4-.2s.3 0 .5.1c.3.1.4.4.4.7 0 .1 0 .1.1.1 0-.2.2-.2.5-.2"/><path class="st2" d="M27.9 26.5c-.1 0-.3 0-.4-.1-.5-.1-.8-.5-.9-1V20.2c0-.5.5-1 1-1.1h.3c.1 0 .3 0 .4.1.4.1.7.4.8.8 0 .1.1.3.1.4v.5c.7.3 1.3.6 1.9.9.2.1.4.3.5.4.2.2.3.5.3.7 0 .3-.1.6-.2.9-.2.3-.5.6-.9.6h-.2c-.2 0-.4-.1-.6-.2-.2-.1-.3-.2-.5-.3-.1-.1-.3-.2-.4-.2v1.4c0 .1 0 .3-.1.4-.1.4-.4.7-.8.8 0 .1-.2.2-.3.2"/><path class="st1" d="M27.2 22.7v-2.6c0-.3.2-.5.5-.6h.5c.2.1.4.2.4.4V21c0 .1 0 .1.1.2.7.3 1.4.6 2.1 1 .1.1.3.2.4.3.1.1.1.3.1.4 0 .2 0 .4-.1.6-.1.2-.3.3-.5.4-.1 0-.3 0-.4-.1-.1-.1-.3-.2-.4-.3-.4-.2-.7-.4-1.1-.6-.1-.1-.1-.1-.1.1v2.4c0 .2-.2.4-.4.4-.2.1-.4.1-.5 0-.3-.1-.4-.3-.5-.6v-.4c-.1-.6-.1-1.4-.1-2.1"/><path class="st2" d="M12.5 26.5c-.1 0-.3 0-.4-.1-.5-.1-.8-.5-.9-1V20.3c0-.2 0-.3.1-.5.1-.4.4-.8.9-.9h.8c.5.1.9.6.9 1.1v.6c.7.3 1.3.6 1.9.9.1.1.2.1.3.2.4.3.6.7.5 1.1 0 .4-.2.8-.5 1.1-.2.2-.5.3-.8.3-.2 0-.4 0-.6-.1-.2-.1-.3-.2-.5-.3h-.1c-.1-.1-.3-.2-.4-.2V25c0 .2 0 .3-.1.5-.1.4-.4.7-.8.8 0 .1-.1.2-.3.2"/><path class="st1" d="M11.8 22.7V20c0-.2.2-.4.5-.5h.5c.3.1.5.3.5.6v.9c0 .2 0 .1.1.2.7.3 1.4.6 2 .9.1 0 .2.1.2.2.2.1.3.4.3.7 0 .3-.1.5-.3.7-.2.2-.5.2-.7.1-.2-.1-.3-.2-.5-.3-.3-.2-.7-.4-1.1-.6-.2-.1-.2-.1-.2.1v2.5c-.1.2-.2.4-.4.4h-.5c-.2-.1-.4-.3-.5-.5v-.3c.1-.8.1-1.6.1-2.4"/><path class="st2" d="M22.4 26.3c-.5 0-1-.3-1.1-.8 0-.1-.1-.2-.1-.3v-.3c0-.2 0-.3.1-.5.1-.3.4-.6.7-.7.1-.1.3-.1.5-.1h.1c.3-.1.6-.1.9-.3.5-.2.9-.6 1.1-1 .2-.4.4-.8.5-1.2 0-.2.1-.3.2-.5.2-.4.5-.6.9-.6.2 0 .4 0 .6.1.6.2.9.8.8 1.4-.1.4-.2.8-.4 1.2-.2.6-.6 1.1-.9 1.6-.6.7-1.3 1.3-2.2 1.6-.5.2-.9.3-1.4.4h-.3"/><path class="st1" d="M21.7 24.8v-.3c.1-.2.2-.3.4-.4.2 0 .3-.1.5-.1.4-.1.7-.2 1.1-.3.6-.3 1.1-.7 1.4-1.2.3-.4.5-.9.6-1.4 0-.1.1-.2.1-.4.1-.2.3-.3.4-.3h.4c.3.1.5.4.5.8-.1.4-.2.7-.3 1.1-.2.5-.5 1-.9 1.5-.5.7-1.2 1.2-2 1.5-.4.2-.9.3-1.3.4-.3.1-.6-.1-.7-.4 0-.1 0-.1-.1-.2s-.1-.2-.1-.3"/><path class="st2" d="M20.8 26.2c-.3 0-.6-.1-.8-.3-.2-.2-.3-.4-.4-.6-.3-.6-.5-1.2-.7-1.8-.2-.6-.3-1.2-.4-1.8-.1-.3-.1-.8-.1-1.2v-.3c0-.4.3-.8.7-1 .2-.1.4-.1.5-.1.6 0 1 .3 1.2.8 0 .1.1.3.1.4.1.5.1 1.1.2 1.6.1.7.4 1.3.7 1.9.1.1.1.2.2.3.2.4.1.8-.1 1.2-.2.4-.6.6-1 .7 0 .2-.1.2-.1.2"/><path class="st1" d="M19.6 19.8c.3 0 .5.2.6.4 0 .1 0 .2.1.4.1.6.1 1.1.3 1.7.2.7.4 1.4.8 2.1 0 .1.1.2.1.2.2.5-.2 1-.6 1.1-.2 0-.4 0-.5-.2-.1-.1-.2-.3-.3-.4-.3-.5-.5-1.1-.6-1.7-.2-.6-.3-1.1-.4-1.7-.1-.3-.1-.7-.2-1.1v-.3c0-.2.2-.4.4-.5h.3"/><path class="st2" d="M16.6 26.2c-.2 0-.4 0-.5-.1-.3-.2-.6-.5-.7-.8-.1-.3-.1-.7.1-1 .1-.1.1-.2.2-.3 0-.1.1-.1.1-.2.3-.6.5-1.2.6-1.8.1-.4.1-.8.2-1.3 0-.2 0-.3.1-.5.1-.5.4-.9.9-1h.2c.2 0 .3 0 .5.1.1 0 .3.1.4.2.3.2.4.5.4.8V20.6c0 .3 0 .5-.1.8v.1l-.3 1.5c-.1.7-.4 1.3-.6 1.9-.1.3-.3.6-.5.9-.3.3-.6.4-1 .4"/><path class="st1" d="M18.5 20.6c0 .3 0 .6-.1.8-.1.5-.1 1-.3 1.5-.1.6-.3 1.2-.6 1.8-.1.3-.3.5-.4.8-.2.2-.5.3-.8.2-.3-.3-.6-.7-.3-1.2.1-.2.2-.3.3-.5.3-.6.5-1.3.7-1.9.1-.4.1-.9.2-1.3 0-.2 0-.3.1-.5.1-.3.2-.5.5-.5h.4c.1 0 .2.1.2.1.1.1.2.2.2.4-.1.1-.1.2-.1.3"/><path class="st2" d="M8 26.4c-.3 0-.6-.2-.8-.4-.2-.3-.3-.7-.3-1 .1-.3.2-.6.5-.7.1-.1.2-.1.3-.2.3-.1.5-.2.6-.2.3-.2.6-.5.7-.8l.3-.9c0-.1 0-.2.1-.4.1-.3.3-.6.5-.7.2-.1.3-.1.5-.1s.4 0 .5.1c.4.2.6.5.7.9v.6c-.1.6-.3 1.2-.6 1.7-.5 1-1.4 1.7-2.5 2-.2 0-.3.1-.5.1"/><path class="st1" d="M8.1 25.8c-.2 0-.3-.1-.4-.2-.1-.2-.2-.4-.1-.6 0-.1.1-.3.2-.3s.2-.1.2-.1c.2-.1.4-.1.6-.2.4-.2.8-.6 1-1.1.1-.3.2-.7.3-1 0-.1 0-.2.1-.3 0-.2.1-.3.3-.4.2-.1.4-.1.6 0 .2.1.3.3.3.5v.5c-.1.6-.3 1.1-.6 1.6-.4.8-1.2 1.5-2.2 1.7-.2-.1-.3-.1-.3-.1"/><path class="st2" d="M23.5 22.8c-.2 0-.4-.1-.6-.2-.1-.1-.2-.1-.3-.2l-.1-.1-.9-.6c-.1 0-.1-.1-.2-.1-.3-.2-.5-.6-.5-1 0-.5.3-.9.7-1.2.2-.1.4-.2.6-.2.1 0 .3 0 .4.1.2.1.5.2.7.3.3.2.7.4 1 .7.4.3.6.8.5 1.3-.1.3-.3.7-.5.9-.3.2-.5.3-.8.3"/><path class="st1" d="M21.5 20.6c0-.3.2-.6.4-.7.2-.1.4-.1.5-.1l.6.3.9.6c.2.1.3.3.3.5v.3c0 .2-.2.4-.3.6-.2.2-.5.2-.7 0-.1-.1-.2-.2-.4-.3l-.9-.6c-.1 0-.1-.1-.2-.1s-.2-.2-.2-.5"/><path class="st2" d="M8.4 24.2c-.2 0-.4 0-.5-.1-.2-.1-.4-.4-.4-.6 0-.1 0-.2-.1-.3v-.1c0-.1-.1-.3-.1-.4v-.2c-.1-.3-.1-.6.1-.8.1-.2.4-.4.7-.5h.3c.2 0 .4.1.6.2.1.1.2.2.3.4.1.1.1.3.1.4.1.3.1.6.2.8v.2c0 .5-.4 1-.9 1h-.3"/><path class="st2" d="M7.2 24.4c-.3 0-.7-.2-.8-.5 0-.1-.1-.2-.1-.3-.1-.3-.1-.5-.2-.8-.1-.1-.1-.2-.1-.3-.1-.5.3-1 .8-1.1h.3c.4 0 .7.2.8.5.1.1.1.2.1.3.1.3.2.6.3 1 .1.6-.2 1.1-.8 1.2h-.3c.1 0 0 0 0 0"/><path class="st1" d="M7.2 23.9c-.2 0-.3-.1-.4-.2 0-.1-.1-.1-.1-.2l-.3-.9v-.2c0-.3.1-.5.4-.6.3-.1.5 0 .6.2 0 .1.1.1.1.2l.3.9c.1.3-.1.6-.4.7-.1.1-.2.1-.2.1"/><path class="st2" d="M14.7 21.6h-.3c-.2-.1-.4-.2-.6-.4-.1-.1-.1-.2-.1-.3-.1-.2-.1-.5-.2-.7V20c-.1-.5.2-1 .8-1.1h.2c.4 0 .7.2.8.5.1.2.2.5.3.8 0 .2.1.3.1.5 0 .3-.1.5-.3.7-.2.1-.5.2-.7.2M30 21.5h-.3c-.2-.1-.4-.2-.6-.5 0-.1-.1-.2-.1-.3 0-.2-.1-.4-.2-.5 0-.1 0-.2-.1-.2-.1-.5.2-1 .7-1.2h.3c.3 0 .7.2.8.5.1.2.2.4.2.6.1.2.1.4.1.7 0 .3-.1.5-.3.8 0 0-.3.1-.5.1M6.5 21.7c-.4 0-.7-.2-.8-.5 0-.1-.1-.2-.1-.2 0-.2-.1-.4-.2-.6 0-.1 0-.1-.1-.2-.1-.5.2-1 .8-1.1h.2c.4 0 .7.2.8.5.1.3.2.5.3.8 0 .1.1.3.1.4 0 .5-.3.9-.8 1-.1-.2-.1-.1-.2-.1"/><path class="st2" d="M30.9 21.4c-.1 0-.3 0-.4-.1-.2-.1-.4-.3-.5-.5 0-.1-.1-.1-.1-.2 0-.2-.1-.4-.2-.6-.1-.1-.1-.3-.1-.4 0-.5.4-.9.9-.9h.1c.3 0 .7.2.8.5 0 .1.1.2.1.2.1.3.2.5.2.8v.2c0 .3-.1.5-.3.7.1.2-.2.3-.5.3"/><path class="st1" d="M31.4 20.4c0 .1 0 .2-.1.3-.1.1-.3.2-.5.1-.1 0-.2-.1-.2-.2v-.1c0-.2-.1-.4-.2-.7v-.2c0-.2.2-.4.4-.4s.3.1.4.2c0 .1.1.1.1.2.1.2.1.5.2.7-.1 0-.1 0-.1.1"/><path class="st2" d="M7.5 21.5c-.4 0-.7-.2-.8-.5 0-.1-.1-.2-.1-.3 0-.2-.1-.4-.2-.6 0-.1-.1-.3-.1-.4 0-.2.1-.5.3-.7.3-.3.6-.4 1-.3.2.1.4.3.5.4.1.1.2.3.2.5.1.2.1.4.2.7v.2c0 .5-.4 1-1 1 .1 0 0 0 0 0"/><path class="st1" d="M8 20.5c0 .2-.1.4-.4.5-.1 0-.3-.1-.4-.2 0-.1 0-.1-.1-.2 0-.2-.1-.4-.2-.7v-.2c0-.3.3-.5.6-.4.1 0 .1.1.2.1.1.1.1.2.1.3.1.3.2.5.2.7v.1"/><path class="st2" d="M15.7 21.5h-.3c-.3-.1-.5-.3-.6-.6 0-.1 0-.1-.1-.2 0-.2-.1-.4-.2-.6 0-.1-.1-.3-.1-.4 0-.3.1-.5.3-.7.2-.2.4-.3.7-.3h.2c.2 0 .3.1.4.3.1.1.2.2.2.3.1.3.2.6.3 1v.1c0 .3-.1.6-.3.8 0 .2-.3.3-.5.3"/><path class="st1" d="M16.2 20.5c0 .3-.3.5-.6.4-.1 0-.2-.1-.2-.2s0-.1-.1-.2c0-.2-.1-.4-.2-.6v-.2c0-.3.3-.5.6-.4.1 0 .1 0 .2.1 0 .1.1.1.1.2 0 .2.1.5.2.9 0-.1 0-.1 0 0M6.9 20.6c0 .2-.1.4-.4.5-.2 0-.3-.1-.4-.2 0 0 0-.1-.1-.1 0-.2-.1-.4-.2-.7v-.2c0-.2.1-.4.3-.5h.1c.2 0 .3.1.4.2.1.2.2.4.2.7.1.1.1.2.1.3M15 20.6c0 .3-.2.5-.5.5-.1 0-.2-.1-.2-.2 0 0 0-.1-.1-.2-.1-.2-.1-.5-.2-.7v-.1c0-.2.1-.4.3-.5h.1c.2 0 .3.1.4.2.1.2.2.4.2.7v.3M29.7 19.3c.1 0 .3.1.3.2.1.2.1.3.2.5s.1.3.1.5-.1.4-.4.5h-.2c-.1 0-.2-.1-.2-.2s0-.1-.1-.2c0-.2-.1-.4-.2-.6v-.2c0-.3.2-.5.5-.5M9.1 23.1c0 .3-.2.5-.5.6-.1 0-.3 0-.4-.1-.1-.1-.2-.2-.2-.3v-.4c0-.2-.1-.4-.2-.6-.1-.2 0-.3 0-.5.1-.1.2-.2.3-.2.2 0 .3 0 .5.1.1.1.1.1.1.2.1.1.1.2.1.4.2.2.2.5.3.8"/></g></svg>