<svg data-name="グループ 91" xmlns="http://www.w3.org/2000/svg" width="378.405" height="248.912"><defs><clipPath id="a"><path data-name="長方形 54" fill="none" d="M0 0h378.405v248.912H0z"/></clipPath></defs><g data-name="グループ 90" clip-path="url(#a)"><path data-name="パス 64" d="m348.055 133.968-6.255-14.1-11.168-21.441-7.6-9.341-7.593-9.422-5.71-2.427-11.268-15-10.688-11.612-17.006-6.7-18.762-8.935-16.084-5.807-26.357-4.915h-25.911l-15.636 1.788-25.183 6.7-19.939 7.144-19.049 14.3-21.015 8.934L68.393 82.2 56.776 95.884l-16.082 30.465-9.381 42.141 39.17 7.864C81.395 118.909 132.512 67.6 193.133 67.6a124.211 124.211 0 0 1 121.98 100.89h41.369v-14.6Z" fill="#fff"/><path data-name="パス 65" d="M139.225 128.044a11.7 11.7 0 0 0 1.069 4.195 16.752 16.752 0 0 0 9.216 9.589 22.6 22.6 0 0 0 4.943 1.43 7.858 7.858 0 0 0 2.486.3 30.637 30.637 0 0 0 3.276-.756c3.708-1.053 5.546-3.979 6.014-7.661.114-.9-.105-1.159-.964-1.335-.446-.081-.9-.135-1.349-.2-1.9-.3-3.813-.539-5.693-.971a40.234 40.234 0 0 1-13.113-5.665c-1.1-.715-2.151-1.5-3.243-2.225-.973-.634-1.354-.512-1.932.526a6.512 6.512 0 0 0-.71 2.778m26.274-1.712a15.944 15.944 0 0 0 4.379-.513c4.9-1.065 6.921-5.866 5.977-10.1a1.72 1.72 0 0 0-1.526-1.429c-.518-.067-1.039-.149-1.559-.216a39.766 39.766 0 0 1-9.471-2.4 47.952 47.952 0 0 1-15.779-9.966 46.373 46.373 0 0 1-4.505-5.166c-.632-.823-.957-.85-1.744-.189a9.45 9.45 0 0 0-3.7 7.593 16.98 16.98 0 0 0 5.618 12.624 39.372 39.372 0 0 0 10.035 6.7 31.9 31.9 0 0 0 12.277 3.062m-21.909-46.158a12.836 12.836 0 0 0 .8 4.249 28.018 28.018 0 0 0 7.8 12.03 40.556 40.556 0 0 0 20.2 10.264 13.21 13.21 0 0 0 3.744.391 30.26 30.26 0 0 0 5.957-1.255 6.794 6.794 0 0 0 4.443-7.161 10.983 10.983 0 0 0-2.415-5.557 3.076 3.076 0 0 0-1.995-1.241c-1.272-.242-2.53-.566-3.786-.89a59.442 59.442 0 0 1-14.32-6.15 40.905 40.905 0 0 1-14.22-12.92c-.721-1.106-.985-1.146-2.045-.445-2.888 1.9-4.153 4.68-4.159 8.685m23.413 66.963a.583.583 0 0 0 .274.431c.456.338.907.675 1.388.971a61.337 61.337 0 0 0 11.439 5.463 57.77 57.77 0 0 0 11.245 2.67 60.557 60.557 0 0 0 7.666.27 31.672 31.672 0 0 0 5.538-.526 48 48 0 0 0 15.265-5.354 39.438 39.438 0 0 0 14.469-13.447 48.24 48.24 0 0 0 6.266-15.307 54.848 54.848 0 0 0 1.465-9.415 48.952 48.952 0 0 0-.346-8.874 54.882 54.882 0 0 0-2.5-11.181c-1.642-4.748-3.7-9.305-5.671-13.9a71.561 71.561 0 0 1-3.12-7.943 29.107 29.107 0 0 1-.8-14.135 39.426 39.426 0 0 1 4.7-12.017 109.828 109.828 0 0 1 7.073-10.385 78.84 78.84 0 0 0 5.627-7.984 16.309 16.309 0 0 0 2.481-8.389 9.562 9.562 0 0 0-4.853-8.564 14.386 14.386 0 0 0-7.324-2.064 23.41 23.41 0 0 0-11.946 3.319 32.361 32.361 0 0 0-9.319 8.348 45.91 45.91 0 0 0-7.8 15.51 54.411 54.411 0 0 0-2.342 14.39c-.024 1.268 0 2.522.038 3.777a29.748 29.748 0 0 0 .189 3.358 4.886 4.886 0 0 1-.145 2.252 3.256 3.256 0 0 1-5.237 1.754 12.789 12.789 0 0 1-1.336-1.227 61.046 61.046 0 0 0-5.858-5.274 42.211 42.211 0 0 0-13.954-7.4 38.641 38.641 0 0 0-12.164-1.484 17.683 17.683 0 0 0-10.079 3.278 9.978 9.978 0 0 0-4.359 6.878 22.493 22.493 0 0 0-.106 3.25 20.064 20.064 0 0 0 2.589 9.724 20.967 20.967 0 0 0 5.525 6.191 51.955 51.955 0 0 0 14.949 8.509 33.173 33.173 0 0 0 13.364 2.42 8.071 8.071 0 0 0 3.74-.944 3.642 3.642 0 0 0 1.7-2 6.577 6.577 0 0 0 .261-3.21 10.955 10.955 0 0 0-3.529-6.015 20.272 20.272 0 0 0-5.543-3.695c-1.4-.674-2.841-1.241-4.2-2.01a3.32 3.32 0 0 1-1.787-2.765 3.438 3.438 0 0 1 4.417-3.7 29.478 29.478 0 0 1 5.5 2.428 25.433 25.433 0 0 1 8.734 7.35c.924 1.255.908 1.241 1.581-.175a11.831 11.831 0 0 1 1.617-2.913 2.781 2.781 0 0 1 2.69-1.161 3.516 3.516 0 0 1 2.777 4.627 17.7 17.7 0 0 1-.83 2.1 40.777 40.777 0 0 0-3.184 14.3 49.61 49.61 0 0 0 .346 9.2 52.214 52.214 0 0 0 3.135 12.462c1 2.508 2.2 4.923 3.356 7.364a16.415 16.415 0 0 1 .889 2.09 3.376 3.376 0 0 1-.331 2.806 3.051 3.051 0 0 1-5.071.714 6.054 6.054 0 0 1-.944-1.295 67.27 67.27 0 0 1-5.324-12.253 60.514 60.514 0 0 1-2.759-14.108c-.06-.862-.127-1.726-.177-2.589-.045-.782-.2-.877-.942-.648s-1.476.473-2.193.756c-1.46.594-1.53.324-.92 2.023a14.641 14.641 0 0 1-8.87 19.407c-1.027.406-1.073.406-.828 1.538a14.406 14.406 0 0 1-.043 6.231c-1.01 4.559-3.3 8.187-7.345 10.48-.522.3-1.071.539-1.6.823a1.2 1.2 0 0 0-.687 1.429 6.164 6.164 0 0 1-.022 2.266 15.914 15.914 0 0 1-5.9 11.194M28.214 167.2a6.444 6.444 0 0 0 .533-2.414 169.788 169.788 0 0 1 37.374-83.554 172.5 172.5 0 0 1 13.045-14 166.7 166.7 0 0 1 61.972-37.656 163.706 163.706 0 0 1 23.434-6.015q5.592-1.011 11.228-1.646c3.167-.337 6.348-.553 9.533-.741 4.805-.3 9.606-.162 14.409-.149 1.925 0 3.852.162 5.771.337a1.046 1.046 0 0 0 1.17-.647 47.719 47.719 0 0 1 4.78-7.134A37.656 37.656 0 0 1 227 2.036a40.063 40.063 0 0 1 6.733-1.659c.615-.135 1.233-.256 1.849-.377h2.737a1.636 1.636 0 0 0 .713.148 21.458 21.458 0 0 1 8.39 2.644c5.893 3.492 8.788 8.874 8.961 15.793a17.76 17.76 0 0 1-1.3 6.878 33.883 33.883 0 0 1-2.541 5.111c-.484.809-.461.85.416 1.214.065.027.132.04.2.068a164.94 164.94 0 0 1 24.462 11.787A169.528 169.528 0 0 1 351.984 135a165.776 165.776 0 0 1 6.862 27.486c.26 1.632.491 3.278.735 4.923v1.078H353.9c-.294-2.616-.728-5.218-1.2-7.808a165.394 165.394 0 0 0-7.105-26.421 164.255 164.255 0 0 0-45.622-67.188 161.376 161.376 0 0 0-24.355-17.789 157.6 157.6 0 0 0-26.208-12.529c-.9-.338-.915-.338-1.474.431-1.455 2-2.92 3.979-4.349 6a55.865 55.865 0 0 0-5.163 8.551 26.179 26.179 0 0 0-2.532 9.575 22.394 22.394 0 0 0 1.6 9.32 2.145 2.145 0 0 0 1.358 1.361 123.436 123.436 0 0 1 27.387 14.89 125.963 125.963 0 0 1 23.494 21.93 127.213 127.213 0 0 1 26.655 55.526c.283 1.376 1.281 9.415 1.263 10.83l-4.939-2.328c-.879-4.652-3.089-13.6-4.469-18.118a121.416 121.416 0 0 0-26.667-46.746 120.358 120.358 0 0 0-21.956-18.841 119.066 119.066 0 0 0-17.418-9.614c-.3-.135-.6-.365-.963-.271a1.933 1.933 0 0 0 .263.877c.975 2.36 1.984 4.707 2.922 7.081a65.161 65.161 0 0 1 4.452 23.386c.008.836-.178 1.646-.172 2.482a35.049 35.049 0 0 1-.513 5.61A66.642 66.642 0 0 1 244 133.776a46.989 46.989 0 0 1-20.451 23.424 50.922 50.922 0 0 1-15.388 5.975 69.646 69.646 0 0 1-8.011 1.119 36.534 36.534 0 0 1-8.5-.175c-2.152-.3-4.279-.769-6.415-1.16a53.4 53.4 0 0 1-18.192-7.121c-2.264-1.389-4.483-2.846-6.706-4.289a4.593 4.593 0 0 0-2.885-.809 18.411 18.411 0 0 1-5.95-.553c-9.686-2.617-16.139-8.686-18.626-18.868a13.66 13.66 0 0 1-.4-4.842 12.334 12.334 0 0 1 2.721-6.473c.628-.769.649-.945.079-1.579a11.765 11.765 0 0 1-2.215-4.154 397.683 397.683 0 0 1-1.506-4.4 13.788 13.788 0 0 1-.844-3.682c-.339-6.513 1.739-11.935 6.87-15.941 1-.782 1.132-1.2.7-2.414q-.492-1.375-.85-2.792c-.313-1.255-.313-1.268-1.407-.648a120.26 120.26 0 0 0-33.293 27.77 121 121 0 0 0-23.5 44.2 105.49 105.49 0 0 0-2.8 12.124h-5.69a3.258 3.258 0 0 0 .111-.417 118.159 118.159 0 0 1 3.507-14.849 127.2 127.2 0 0 1 39.132-59.909 123.229 123.229 0 0 1 22.629-15.372 1.535 1.535 0 0 0 .933-1.282 16.093 16.093 0 0 1 2.873-7.377 16.821 16.821 0 0 1 5.6-4.829 1.631 1.631 0 0 0 .929-1.941 11.218 11.218 0 0 1-.092-.54 25.929 25.929 0 0 1-.088-8.092 17.139 17.139 0 0 1 4.63-9.549c4.363-4.478 9.778-6.514 15.777-7.027a35.331 35.331 0 0 1 9.523.621 46.421 46.421 0 0 1 14.516 5.275 73.408 73.408 0 0 1 6.971 4.653c.331.243.626.581 1.109.581a12.514 12.514 0 0 0 .484-3.022 60.571 60.571 0 0 1 1.4-9.09 58.073 58.073 0 0 1 2.538-8.268c.3-.782.2-.944-.6-1.039h-.209c-2.524-.08-5.047-.175-7.571-.216-1.506-.026-3.014.041-4.52.095-3.995.121-7.981.324-11.962.715-3.628.338-7.242.8-10.835 1.4a162.2 162.2 0 0 0-16.936 3.8 159.074 159.074 0 0 0-38.694 16.738A162.071 162.071 0 0 0 88.15 66.921a158.5 158.5 0 0 0-15.068 15.133 164.379 164.379 0 0 0-28.4 46.152 162.8 162.8 0 0 0-9.159 31.088 89.043 89.043 0 0 0-1.413 9.2h-5.9Z" fill="#302c2b"/><path data-name="パス 66" d="M139.225 128.044a11.689 11.689 0 0 0 1.07 4.195 16.75 16.75 0 0 0 9.215 9.589 22.6 22.6 0 0 0 4.943 1.429 7.8 7.8 0 0 0 2.486.3 30.875 30.875 0 0 0 3.276-.755c3.708-1.053 5.546-3.979 6.014-7.661.114-.9-.105-1.16-.964-1.335-.445-.081-.9-.135-1.349-.2-1.9-.3-3.812-.539-5.693-.97a40.255 40.255 0 0 1-13.113-5.665c-1.1-.715-2.151-1.5-3.243-2.225-.973-.635-1.354-.512-1.932.525a6.52 6.52 0 0 0-.71 2.779" fill="#fdcf90"/><path data-name="パス 67" d="M165.5 126.331a15.868 15.868 0 0 0 4.379-.513c4.9-1.065 6.921-5.866 5.978-10.1a1.723 1.723 0 0 0-1.526-1.429c-.519-.067-1.04-.148-1.56-.216a39.741 39.741 0 0 1-9.471-2.4 47.955 47.955 0 0 1-15.78-9.973 46.373 46.373 0 0 1-4.505-5.166c-.632-.823-.956-.849-1.744-.188a9.453 9.453 0 0 0-3.7 7.592 16.982 16.982 0 0 0 5.618 12.624 39.346 39.346 0 0 0 10.035 6.7 31.881 31.881 0 0 0 12.277 3.062" fill="#fdcf90"/><path data-name="パス 68" d="M143.591 80.179a12.862 12.862 0 0 0 .8 4.249 28.03 28.03 0 0 0 7.8 12.03 40.557 40.557 0 0 0 20.2 10.264 13.21 13.21 0 0 0 3.744.391 30.245 30.245 0 0 0 5.957-1.255 6.8 6.8 0 0 0 4.444-7.161 11 11 0 0 0-2.415-5.557 3.079 3.079 0 0 0-1.995-1.241c-1.272-.242-2.53-.566-3.786-.89a59.408 59.408 0 0 1-14.32-6.15 40.9 40.9 0 0 1-14.22-12.92c-.722-1.106-.986-1.146-2.045-.445-2.889 1.9-4.154 4.68-4.16 8.685" fill="#fdcf90"/><path data-name="パス 69" d="M167.005 147.142a.582.582 0 0 0 .273.431c.457.338.907.675 1.388.971a61.346 61.346 0 0 0 11.44 5.463 57.76 57.76 0 0 0 11.244 2.67 60.566 60.566 0 0 0 7.667.27 31.69 31.69 0 0 0 5.538-.526 47.964 47.964 0 0 0 15.264-5.355 39.43 39.43 0 0 0 14.47-13.446 48.272 48.272 0 0 0 6.266-15.307 54.848 54.848 0 0 0 1.465-9.415 49.044 49.044 0 0 0-.346-8.874 54.949 54.949 0 0 0-2.5-11.181c-1.642-4.748-3.7-9.305-5.672-13.9a71.41 71.41 0 0 1-3.116-7.944 29.1 29.1 0 0 1-.8-14.134 39.45 39.45 0 0 1 4.7-12.017 110.016 110.016 0 0 1 7.073-10.385 78.525 78.525 0 0 0 5.627-7.984 16.31 16.31 0 0 0 2.482-8.389 9.563 9.563 0 0 0-4.853-8.564 14.389 14.389 0 0 0-7.324-2.064 23.414 23.414 0 0 0-11.947 3.319 32.37 32.37 0 0 0-9.318 8.348 45.912 45.912 0 0 0-7.8 15.51 54.451 54.451 0 0 0-2.341 14.39c-.024 1.268 0 2.522.038 3.777a29.746 29.746 0 0 0 .188 3.358 4.859 4.859 0 0 1-.145 2.252 3.255 3.255 0 0 1-5.236 1.754 12.8 12.8 0 0 1-1.337-1.227 60.929 60.929 0 0 0-5.858-5.274 42.207 42.207 0 0 0-13.953-7.4 38.619 38.619 0 0 0-12.164-1.484 17.683 17.683 0 0 0-10.079 3.278 9.983 9.983 0 0 0-4.36 6.878 22.491 22.491 0 0 0-.105 3.25 20.053 20.053 0 0 0 2.589 9.724 20.978 20.978 0 0 0 5.524 6.191 51.974 51.974 0 0 0 14.95 8.509 33.173 33.173 0 0 0 13.363 2.42 8.071 8.071 0 0 0 3.74-.944 3.636 3.636 0 0 0 1.7-2 6.555 6.555 0 0 0 .261-3.21 10.954 10.954 0 0 0-3.528-6.015 20.292 20.292 0 0 0-5.544-3.695c-1.4-.674-2.84-1.241-4.2-2.01a3.32 3.32 0 0 1-1.787-2.765 3.438 3.438 0 0 1 4.417-3.7 29.535 29.535 0 0 1 5.5 2.428 25.433 25.433 0 0 1 8.734 7.35c.923 1.255.908 1.241 1.581-.175a11.8 11.8 0 0 1 1.617-2.913 2.777 2.777 0 0 1 2.689-1.161 3.516 3.516 0 0 1 2.778 4.627 17.7 17.7 0 0 1-.831 2.1 40.808 40.808 0 0 0-3.183 14.3 49.609 49.609 0 0 0 .345 9.2 52.215 52.215 0 0 0 3.136 12.462c1 2.508 2.2 4.923 3.356 7.364a16.415 16.415 0 0 1 .889 2.09 3.37 3.37 0 0 1-.332 2.805 3.05 3.05 0 0 1-5.071.715 6.049 6.049 0 0 1-.943-1.295 67.342 67.342 0 0 1-5.324-12.253 60.616 60.616 0 0 1-2.759-14.108c-.059-.862-.126-1.726-.177-2.589-.044-.782-.2-.877-.941-.648s-1.477.473-2.193.756c-1.461.594-1.531.324-.92 2.023a14.643 14.643 0 0 1-8.87 19.407c-1.027.406-1.073.406-.828 1.538a14.421 14.421 0 0 1-.043 6.231c-1.01 4.559-3.3 8.187-7.345 10.48-.522.3-1.071.539-1.6.823a1.2 1.2 0 0 0-.688 1.429 6.12 6.12 0 0 1-.022 2.266 15.913 15.913 0 0 1-5.9 11.194" fill="#fdcf90"/><path data-name="パス 70" d="M79.342 91.158a2.225 2.225 0 0 0 .99.4c5.4 1.173 9.529 4.019 11.658 9.481.028.068.046.135.079.2.262.526.434.58.852.148a10.084 10.084 0 0 0 2.06-2.981 6.366 6.366 0 0 0-.3-6.015 11.447 11.447 0 0 0-5.967-5.057 5.9 5.9 0 0 0-2.992-.324c-2.71.4-4.646 2.01-6.385 4.141m-3.756 8.537A6.141 6.141 0 0 0 71.8 100.8a11.96 11.96 0 0 0-4.954 6.906 6.14 6.14 0 0 0 1.094 5.421 11.067 11.067 0 0 0 6.509 4.289 6.522 6.522 0 0 0 5.355-.836 11.294 11.294 0 0 0 5.068-7.161 5.928 5.928 0 0 0-.415-4.006 8.2 8.2 0 0 0-1.984-2.643 10.694 10.694 0 0 0-6.883-3.075m28.078-7.081a15.768 15.768 0 0 1-2.892 9.022 25.512 25.512 0 0 1-8.073 8.107 3.891 3.891 0 0 0-1.524 1.874 27.02 27.02 0 0 1-4.806 7.714 20.812 20.812 0 0 1-7.539 5.584 13.723 13.723 0 0 1-12.639-.984 14.247 14.247 0 0 1-5.984-6.352 12.719 12.719 0 0 1-.558-9.293 25.113 25.113 0 0 1 8.46-12.908 12.291 12.291 0 0 0 3.187-3.829 25.284 25.284 0 0 1 12.127-11.262c5.835-2.63 11.949-1.335 16.5 3.452a13.3 13.3 0 0 1 3.577 6.515 13.766 13.766 0 0 1 .161 2.36" fill="#302c2b"/><path data-name="パス 71" d="M56.769 159.266a15.961 15.961 0 0 1-10.934-4.585 11.78 11.78 0 0 1-3.353-7.526c-.513-5.839 1.532-10.843 4.932-15.362a15.951 15.951 0 0 1 7.458-5.61 6.7 6.7 0 0 1 3.716-.31 2.791 2.791 0 0 1 2.277 3.142 6.987 6.987 0 0 1-1.715 3.885 2.571 2.571 0 0 1-1.962.9 6.726 6.726 0 0 0-5.883 3.587 13.2 13.2 0 0 0-1.863 4.68 5.912 5.912 0 0 0 1.538 5.288 11.629 11.629 0 0 0 6.39 3.278 7.379 7.379 0 0 0 3.635-.136c3.076-.958 4.825-3.209 5.686-6.285a6.093 6.093 0 0 0-.491-5.012c-.075-.121-.144-.256-.224-.364-.738-1.092-1.062-1.066-1.63.121a8.659 8.659 0 0 1-1.485 2.482 2.917 2.917 0 0 1-3.858.27 2.109 2.109 0 0 1-.92-1.633 4.425 4.425 0 0 1 .415-2.211c.722-1.646 1.437-3.291 2.182-4.923a16.97 16.97 0 0 1 .97-1.808c1.464-2.36 3.092-2.872 5.694-2.265a53.679 53.679 0 0 1 6.64 2.4c.723.283 1.454.54 2.153.863a2.468 2.468 0 0 1 1.481 3.089 5.646 5.646 0 0 1-.738 1.9 3.142 3.142 0 0 1-2.763 1.686c-.751.027-.87.162-.738.931a14.208 14.208 0 0 1-1.448 8.713 18.645 18.645 0 0 1-8.559 9.224 14.244 14.244 0 0 1-6.606 1.591" fill="#302c2b"/><path data-name="パス 72" d="M121.857 70.981a4.944 4.944 0 0 0-.422-2.293 9.822 9.822 0 0 0-5.89-5.516 3.194 3.194 0 0 0-.719-.135 6.828 6.828 0 0 0-5.1 1.241 165.958 165.958 0 0 0-4.385 3.183c-1.276.957-1.29 1.2-.259 2.468q3.3 4.086 6.613 8.159c.494.608 1.012 1.2 1.523 1.794a.732.732 0 0 0 1.113.121 47.514 47.514 0 0 0 5.567-4.261 6.019 6.019 0 0 0 1.956-4.761m9.134-2a12.794 12.794 0 0 1-2.671 7.243 18.045 18.045 0 0 1-3.345 3.438c-3.308 2.63-6.743 5.071-10.152 7.553a10.8 10.8 0 0 1-2.137 1.16 4.588 4.588 0 0 1-5.868-1.4c-2.58-3.155-5.137-6.325-7.7-9.481-1.215-1.494-2.452-2.98-3.625-4.517a4.077 4.077 0 0 1 .037-5.449 7.515 7.515 0 0 1 1.426-1.43c1.358-1.025 2.713-2.063 4.084-3.061 2.172-1.6 4.333-3.21 6.542-4.747a18.3 18.3 0 0 1 6.442-2.833 12.577 12.577 0 0 1 11.744 3.1 15.188 15.188 0 0 1 4.878 7.808 11.529 11.529 0 0 1 .348 2.617" fill="#302c2b"/><path data-name="パス 73" d="M328.126 149.987a6.929 6.929 0 0 0 1.61-.229 9.991 9.991 0 0 0 6.221-3.52 5.419 5.419 0 0 0 1.3-4.221c-.326-2.954-1.871-5.408-3.111-8a.769.769 0 0 0-1.009-.337 8.42 8.42 0 0 0-.788.3l-7.767 3.318c-1.455.633-2.915 1.24-4.353 1.914-1.033.473-1.1.7-.667 1.741.287.7.583 1.4.9 2.09a26.31 26.31 0 0 0 2.19 4.195 6.328 6.328 0 0 0 5.482 2.75m16.754-4.315a12 12 0 0 1-4.576 9.5 17.563 17.563 0 0 1-10.589 3.965c-4.419.149-7.923-1.808-10.685-5.274a21.662 21.662 0 0 1-2.766-4.6q-2.022-4.47-4.052-8.942a15.347 15.347 0 0 1-1.165-3.587 4.047 4.047 0 0 1 1.7-4.235 8.166 8.166 0 0 1 1.866-.984c5.075-2.185 10.149-4.384 15.234-6.555a9.9 9.9 0 0 1 3.717-1.079 4.278 4.278 0 0 1 3.049 1.228 7.326 7.326 0 0 1 1.568 2.157c1.927 4.019 3.837 8.052 5.467 12.206a18.35 18.35 0 0 1 1.234 6.2" fill="#302c2b"/><path data-name="パス 74" d="M313.565 104.253a3.434 3.434 0 0 0-1.079.553q-5.022 3.175-10.035 6.366a14.644 14.644 0 0 1-1.558.9 2.85 2.85 0 0 1-3.255-.4 8.013 8.013 0 0 1-2.549-3.777 2.318 2.318 0 0 1 .652-2.562 9.4 9.4 0 0 1 1.355-1.012q8.635-5.5 17.283-10.978a3.112 3.112 0 0 1 4.311.431 12.478 12.478 0 0 1 2.984 4.019 5.377 5.377 0 0 1-.168 5.058c-2.408 4.532-4.747 9.117-7.109 13.675-.132.257-.245.514-.441.931a5.136 5.136 0 0 0 1.363-.741q5.338-3.378 10.67-6.744c1.886-1.186 3.026-1.025 4.572.62a9.165 9.165 0 0 1 .69.81 8.054 8.054 0 0 1 1.26 2.481 2.3 2.3 0 0 1-.739 2.536 8.458 8.458 0 0 1-.939.7q-8.46 5.361-16.926 10.75c-2.519 1.591-3.772 1.416-5.821-.782a12.546 12.546 0 0 1-1.919-2.712 5.888 5.888 0 0 1 .059-5.88c2.429-4.559 4.776-9.171 7.153-13.756.063-.121.1-.257.186-.486" fill="#302c2b"/><path data-name="パス 75" d="M266.495 80.826a7.983 7.983 0 0 1-4.933-2.872 2.289 2.289 0 0 1-.066-2.819 254.42 254.42 0 0 1 2.6-4.208c.532-.863 1.085-1.7 1.612-2.549.493-.809.47-.984-.333-1.444-1.96-1.132-3.94-2.224-5.913-3.317-1.048-.593-2.093-1.187-3.152-1.753-.8-.418-.831-.4-1.342.378-1.2 1.874-2.383 3.762-3.574 5.637a7.637 7.637 0 0 1-.234.351c-1.4 2.144-2.691 2.562-5.027 1.6a11.225 11.225 0 0 1-2.564-1.483c-1.535-1.16-1.775-2.549-.708-4.235 2.507-3.978 5.031-7.931 7.541-11.895 1.169-1.848 2.321-3.709 3.482-5.571.173-.269.361-.526.531-.809a2.9 2.9 0 0 1 3.287-1.362 8.1 8.1 0 0 1 4.615 2.616 2.2 2.2 0 0 1 .349 2.873 31.947 31.947 0 0 1-1.826 3.049c-.555.876-1.131 1.74-1.665 2.629-.4.675-.373.837.282 1.2q4.57 2.57 9.162 5.1c.78.431.866.4 1.367-.364 1.057-1.619 2.092-3.252 3.14-4.883 1.042-1.6 1.919-2 3.734-1.6a8.743 8.743 0 0 1 3.981 2.1 2.616 2.616 0 0 1 .524 3.764c-1.424 2.319-2.9 4.612-4.355 6.918L269.74 79.3a3.163 3.163 0 0 1-3.245 1.524" fill="#302c2b"/><path data-name="パス 76" d="m286.9 83.9 5.2 4.679c.354.324.623.27.808-.175.812-1.955 1.646-3.9 2.417-5.88.3-.756 0-1.093-.775-1.025a3.364 3.364 0 0 0-.714.161c-1.884.553-3.766 1.093-5.645 1.673a2.8 2.8 0 0 0-1.3.567m9.167-10.8a9.324 9.324 0 0 1 3.466.863 12.193 12.193 0 0 1 4.1 3.493 5.388 5.388 0 0 1 .858 5.6c-.913 2.32-1.862 4.613-2.8 6.906q-2.211 5.4-4.436 10.789a17.5 17.5 0 0 1-.812 1.767 1.97 1.97 0 0 1-1.9 1.133 7.179 7.179 0 0 1-5.3-2.725 2.649 2.649 0 0 1-.3-2.765q.439-1.171.931-2.306a1.5 1.5 0 0 0-.408-1.928q-4.077-3.682-8.11-7.418a2.072 2.072 0 0 0-2.318-.486c-.857.31-1.747.527-2.631.755a3.908 3.908 0 0 1-4.06-1.106 6.6 6.6 0 0 1-1.887-3.317 1.748 1.748 0 0 1 1.039-2.212 7.152 7.152 0 0 1 1.283-.472q10.2-3.036 20.406-6.056a13.188 13.188 0 0 1 2.883-.512" fill="#302c2b"/><path data-name="パス 77" d="M18.322 248.56a13.816 13.816 0 0 1-4.174-.63 14.168 14.168 0 0 1-9.334-9.318 18.5 18.5 0 0 1-.676-9.84 12.68 12.68 0 0 1 8.236-9.589 39.583 39.583 0 0 1 4.275-1.27l.856-.221a59.427 59.427 0 0 0 10.222-3.507 26.559 26.559 0 0 0 11.792-10.705 34.3 34.3 0 0 0 1.51-2.811q-2.6 0-5.2-.011a73.229 73.229 0 0 1-8.487 9.3 36.7 36.7 0 0 1-3.209 2.68 15.674 15.674 0 0 1-9.218 3.177c-6.879 0-12.839-5.073-14.491-12.339a13.954 13.954 0 0 1 4.425-14.134l.935-.82c1.264-1.106 2.533-2.215 3.734-3.391a42.734 42.734 0 0 0 7.728-10.567c.674-1.259 1.3-2.544 1.924-3.826l.886-1.809a18.606 18.606 0 0 1 3.015-4.516 13.039 13.039 0 0 1 9.384-4.26l.736-.011a16.755 16.755 0 0 1 7.7 1.649 13.673 13.673 0 0 1 7.526 8.693h3.5c.166 0 .331.007.494.019h7.73a15.492 15.492 0 0 1 5.982 1.251c3.127 1.308 8.45 4.785 9.008 13.4a42.876 42.876 0 0 1-1.375 12.455A73.437 73.437 0 0 1 63.138 222.5a57.591 57.591 0 0 1-23.8 20.1 70.813 70.813 0 0 1-17.332 5.583 20.706 20.706 0 0 1-3.685.375" fill="#302c2b"/><path data-name="パス 78" d="M51.9 177.021h8.235a8.883 8.883 0 0 1 3.457.744c3.458 1.445 4.784 4.3 5.01 7.8a36.815 36.815 0 0 1-1.224 10.579 66.584 66.584 0 0 1-9.655 22.71 50.882 50.882 0 0 1-21.147 17.836 63.971 63.971 0 0 1-15.732 5.074 9.61 9.61 0 0 1-4.732-.052 7.727 7.727 0 0 1-5.132-5.22 12.07 12.07 0 0 1-.455-6.412 6.189 6.189 0 0 1 4.143-4.788 44.212 44.212 0 0 1 4.482-1.284 64.468 64.468 0 0 0 11.359-3.919 33.181 33.181 0 0 0 14.611-13.26 44.761 44.761 0 0 0 4.628-10.944c.056-.2.1-.4.149-.6.216-.957.115-1.1-.818-1.148-.164-.009-.328 0-.492 0-4.917 0-9.834.022-14.75-.021a2.236 2.236 0 0 0-2.047 1.033 67.023 67.023 0 0 1-8.874 10.007 30.483 30.483 0 0 1-2.638 2.2c-6.077 4.439-12.152.579-13.5-5.336a7.451 7.451 0 0 1 2.377-7.789c1.659-1.461 3.342-2.9 4.922-4.446a49.508 49.508 0 0 0 8.908-12.141c1.027-1.911 1.944-3.88 2.907-5.825a12.272 12.272 0 0 1 1.948-2.97 6.5 6.5 0 0 1 4.771-2.182 11.164 11.164 0 0 1 5.375.963c3.392 1.672 4.806 4.276 4.266 8-.018.121-.055.24-.073.361-.128.862-.042.995.873 1 2.95.016 5.9.006 8.85.006v.017" fill="#fff"/><path data-name="パス 79" d="M330.658 248.908a18.832 18.832 0 0 1-4.884-.656c-5.728-1.532-9.446-5.976-10.2-12.2a47.289 47.289 0 0 1-.27-5.951l.007-32.509q0-9.729-.013-19.465c0-1.773.1-3.534.266-5.291a13.862 13.862 0 0 1 11.757-12.6 19.313 19.313 0 0 1 3.295-.288 18.4 18.4 0 0 1 5.074.715 13.278 13.278 0 0 1 9.545 9.893 20.957 20.957 0 0 1 .637 5.114v6.235a171.883 171.883 0 0 1 22.913 10.96 20.954 20.954 0 0 1 6.272 5.186 14.793 14.793 0 0 1 3.086 8.615 19.337 19.337 0 0 1-2.555 10.6 14.63 14.63 0 0 1-10.722 7.565 13.408 13.408 0 0 1-2.022.154 13.588 13.588 0 0 1-7-1.971 140.37 140.37 0 0 1-5.361-3.361q-2.332-1.54-4.614-2.908v16.191a22.8 22.8 0 0 1-.617 5.284 13.2 13.2 0 0 1-9.556 9.97 18.208 18.208 0 0 1-5.04.716" fill="#302c2b"/><path data-name="パス 80" d="M321.83 204.421c0-8.769.012-17.539-.011-26.308-.005-1.56.091-3.11.236-4.657a7.3 7.3 0 0 1 6.372-6.783 12.079 12.079 0 0 1 5.462.268 6.82 6.82 0 0 1 5.014 5.222 14.442 14.442 0 0 1 .438 3.525c.005 3.074 0 6.147 0 9.221 0 1.509.009 1.505 1.387 2.022a165.787 165.787 0 0 1 24.79 11.6 14.378 14.378 0 0 1 4.373 3.525 8.3 8.3 0 0 1 1.728 4.891 12.844 12.844 0 0 1-1.694 7.073 8.187 8.187 0 0 1-6.049 4.367 6.962 6.962 0 0 1-4.711-.983 132.872 132.872 0 0 1-5.1-3.2 122.791 122.791 0 0 0-12.974-7.5c-1.744-.864-1.75-.854-1.751 1.042v25.2a16.266 16.266 0 0 1-.438 3.77 6.736 6.736 0 0 1-5.02 5.208 11.831 11.831 0 0 1-6.427.027c-3.483-.931-5.017-3.434-5.414-6.685a41.939 41.939 0 0 1-.221-5.15q.02-12.846.006-25.693" fill="#fff"/><path data-name="パス 81" d="M147.914 248.912a19.209 19.209 0 0 1-4.723-.6 13.647 13.647 0 0 1-10.291-11.555 31.841 31.841 0 0 1-.307-4.474v-55.917a23.4 23.4 0 0 1 .628-5.744 13.437 13.437 0 0 1 10.188-10.151 18.257 18.257 0 0 1 4.4-.543 18.749 18.749 0 0 1 4.624.588 13.8 13.8 0 0 1 10.534 13.5c.043 2.42.038 4.841.03 7.265v.588a172.123 172.123 0 0 1 22.541 10.709 31.663 31.663 0 0 1 3.612 2.38 15.176 15.176 0 0 1 6.278 13.223 18.543 18.543 0 0 1-5.422 12.74 13.752 13.752 0 0 1-9.724 4.065 14.35 14.35 0 0 1-6.624-1.66 58.8 58.8 0 0 1-5.4-3.316l-.7-.472a113.553 113.553 0 0 0-4.556-2.866v17.154a17.017 17.017 0 0 1-.768 5.4 13.356 13.356 0 0 1-9.553 9.056 18.432 18.432 0 0 1-4.766.63" fill="#302c2b"/><path data-name="パス 82" d="M139.127 204.388v-28.03a16.807 16.807 0 0 1 .43-4.141 6.975 6.975 0 0 1 5.438-5.414 11.8 11.8 0 0 1 5.833.036 7.239 7.239 0 0 1 5.623 7.292c.063 3.482.019 6.966.024 10.449 0 2.064-.118 1.75 1.69 2.426a165.6 165.6 0 0 1 24.145 11.243 25.6 25.6 0 0 1 2.876 1.886 8.765 8.765 0 0 1 3.731 7.742 12.177 12.177 0 0 1-3.5 8.414 7.258 7.258 0 0 1-8.726 1.253 62.748 62.748 0 0 1-5.526-3.443 119.478 119.478 0 0 0-12.873-7.427c-1.8-.9-1.815-.872-1.815 1.092v26.062a10.918 10.918 0 0 1-.452 3.393 6.852 6.852 0 0 1-5.035 4.759 12.12 12.12 0 0 1-6.2.007 7.063 7.063 0 0 1-5.427-6.143 25.045 25.045 0 0 1-.243-3.549q.017-13.953.006-27.907" fill="#fff"/><path data-name="パス 83" d="M264.832 246.462a14.088 14.088 0 0 1-13.394-9.308 21.419 21.419 0 0 1-1.062-3.687 16.551 16.551 0 0 1-.283-3.335l-.006-.513a16.484 16.484 0 0 1 .714-5.587 13.377 13.377 0 0 1 8.227-8.618 27.032 27.032 0 0 1 5.491-1.311l1.27-.21a47.873 47.873 0 0 0 11.191-3.268 29.861 29.861 0 0 0 13.478-12.192 62.48 62.48 0 0 0 6.4-14.764 29.316 29.316 0 0 1 2.049-5.407 12.109 12.109 0 0 1 11.071-6.8h.007a18.876 18.876 0 0 1 6.554.914 14.641 14.641 0 0 1 9.705 16.644 67.768 67.768 0 0 1-4.547 14.479 80.852 80.852 0 0 1-11.108 18.825 61.834 61.834 0 0 1-26.445 19.41 80.157 80.157 0 0 1-16.744 4.533 16.961 16.961 0 0 1-2.57.2" fill="#302c2b"/><path data-name="パス 84" d="M256.611 229.458a9.906 9.906 0 0 1 .394-3.4 6.9 6.9 0 0 1 4.329-4.541 31.654 31.654 0 0 1 5.628-1.208 54.826 54.826 0 0 0 12.69-3.731 36.48 36.48 0 0 0 16.369-14.735 69.025 69.025 0 0 0 7.087-16.295 23.811 23.811 0 0 1 1.579-4.256 5.66 5.66 0 0 1 5.322-3.308 12.61 12.61 0 0 1 4.361.54 8.165 8.165 0 0 1 5.453 9.331 61.848 61.848 0 0 1-4.135 13.1 73.992 73.992 0 0 1-10.206 17.309 55.142 55.142 0 0 1-23.693 17.384 73.283 73.283 0 0 1-15.375 4.166 7.688 7.688 0 0 1-8.91-5.063 15.343 15.343 0 0 1-.736-2.6 15.1 15.1 0 0 1-.157-2.694" fill="#fff"/><path data-name="パス 85" d="M245.878 246.218a13.2 13.2 0 0 1-9.423-3.923 27.091 27.091 0 0 1-4.786-6.7 103.77 103.77 0 0 1-8.134-21.107 172.694 172.694 0 0 1-4.385-20.837c-.609-4.122-1.28-8.94-1.539-13.89a24.329 24.329 0 0 1 .03-4.088 13.632 13.632 0 0 1 8.4-11.316 17.509 17.509 0 0 1 6.359-1.457h.007c7.049 0 12.173 3.765 13.913 10.072a32.912 32.912 0 0 1 .913 5.253 193.248 193.248 0 0 0 2.883 19.368 76.591 76.591 0 0 0 8.618 22.643 30.068 30.068 0 0 1 1.847 3.631 15.7 15.7 0 0 1-.7 13.827A16.549 16.549 0 0 1 248.348 246a14.435 14.435 0 0 1-2.47.217" fill="#302c2b"/><path data-name="パス 86" d="M232.573 169.42c4.06-.012 6.511 1.861 7.455 5.284a27.123 27.123 0 0 1 .718 4.231 200.988 200.988 0 0 0 2.988 20.016 82.618 82.618 0 0 0 9.366 24.569 23.8 23.8 0 0 1 1.454 2.839c2.668 6.442-2.047 12.3-7.313 13.211a6.782 6.782 0 0 1-6.2-1.927 20.34 20.34 0 0 1-3.6-5.1 97.634 97.634 0 0 1-7.614-19.791 166.206 166.206 0 0 1-4.22-20.048c-.649-4.412-1.243-8.826-1.478-13.285a18.811 18.811 0 0 1 0-3.049 7.1 7.1 0 0 1 4.563-6.048 10.846 10.846 0 0 1 3.88-.9" fill="#fff"/><path data-name="パス 87" d="M196.825 246.225a14.45 14.45 0 0 1-6.353-1.5 16.876 16.876 0 0 1-8.622-9.63 16.043 16.043 0 0 1 .957-12.41c.6-1.2 1.254-2.375 1.909-3.544.426-.761.851-1.522 1.258-2.294a76.09 76.09 0 0 0 7.2-21.253c.851-4.406 1.544-9.176 2.181-15.01.24-2.189.453-4.107.781-6 1.081-6.25 5.3-10.563 11.294-11.53a14.907 14.907 0 0 1 2.4-.191 17.59 17.59 0 0 1 5.9 1.076 15.545 15.545 0 0 1 4.41 2.364 12.618 12.618 0 0 1 5.017 9.529c.045.828.038 1.652.026 2.473l-.007.828a57.482 57.482 0 0 1-.723 9.536l-.143 1.079a180.626 180.626 0 0 1-3.226 17.915 121.555 121.555 0 0 1-7.395 22.785 45.99 45.99 0 0 1-6.017 10.5 13.869 13.869 0 0 1-10.846 5.276" fill="#302c2b"/><path data-name="パス 88" d="M218.649 179.131a60.146 60.146 0 0 1-.81 9.774 173.784 173.784 0 0 1-3.108 17.268 116.084 116.084 0 0 1-6.986 21.58 39.87 39.87 0 0 1-5.125 9.063 7.38 7.38 0 0 1-9.293 2.044c-4.671-2.273-7.447-7.727-4.684-13.253.97-1.939 2.1-3.8 3.1-5.721a82.929 82.929 0 0 0 7.838-23.055c.992-5.145 1.692-10.332 2.262-15.539.2-1.87.4-3.744.722-5.6.61-3.533 2.661-5.675 5.9-6.2a10.157 10.157 0 0 1 5.07.589 9.145 9.145 0 0 1 2.593 1.372 6.173 6.173 0 0 1 2.5 4.726c.053.98.009 1.965.009 2.948" fill="#fff"/><path data-name="パス 89" d="M94.339 247.661a12.011 12.011 0 0 1-9.7-4.886 15.538 15.538 0 0 1-2.974-12.375 11.762 11.762 0 0 1 5.918-8.292 23.3 23.3 0 0 1 4.017-1.787 48.572 48.572 0 0 0 6.31-2.514 19.067 19.067 0 0 0 8.672-9.716 46.89 46.89 0 0 0 2.985-10.765c.283-1.6.526-2.942.871-4.253a12.387 12.387 0 0 1 6.5-8.454 13.745 13.745 0 0 1 6.105-1.423 15.472 15.472 0 0 1 6.125 1.315 12.67 12.67 0 0 1 7.765 10.8 23.646 23.646 0 0 1-.586 6.935l-.1.5a69.624 69.624 0 0 1-7.283 20.725 47.309 47.309 0 0 1-29.552 23.509 15.623 15.623 0 0 1-4.373.685h-.7" fill="#302c2b"/><path data-name="パス 90" d="M94.728 241.121a5.5 5.5 0 0 1-4.9-2.31A9.068 9.068 0 0 1 88.1 231.5a5.216 5.216 0 0 1 2.738-3.736 17.29 17.29 0 0 1 2.919-1.284 53.611 53.611 0 0 0 7.17-2.887 25.482 25.482 0 0 0 11.628-12.867 52.717 52.717 0 0 0 3.443-12.267c.221-1.248.434-2.5.757-3.728a6.07 6.07 0 0 1 3.057-4.255 7.836 7.836 0 0 1 6.776.026 6.122 6.122 0 0 1 3.848 5.414 19.737 19.737 0 0 1-.592 5.587 63.772 63.772 0 0 1-6.6 18.819A40.849 40.849 0 0 1 97.629 240.7a8.882 8.882 0 0 1-2.9.425" fill="#fff"/><path data-name="パス 91" d="M278.507 205.327a13.678 13.678 0 0 1-7.187-2.136c-1.294-.787-2.523-1.69-3.747-2.6l-.916-.678a116.282 116.282 0 0 0-10.4-6.857 26.48 26.48 0 0 1-2.42-1.612 14.144 14.144 0 0 1-5.968-12.114 16.178 16.178 0 0 1 8.028-13.845 13.946 13.946 0 0 1 7.176-2.042 13.708 13.708 0 0 1 5 .959 57.435 57.435 0 0 1 8.037 3.979 86.711 86.711 0 0 1 11.728 7.775 15.157 15.157 0 0 1 5.506 15.618 18.137 18.137 0 0 1-6.409 10.484 13.614 13.614 0 0 1-8.425 3.069" fill="#302c2b"/><path data-name="パス 92" d="M254.392 179.534a9.576 9.576 0 0 1 4.836-8.437 7.1 7.1 0 0 1 6.475-.616 51.57 51.57 0 0 1 7.142 3.552 80.757 80.757 0 0 1 10.857 7.173 8.934 8.934 0 0 1 3.437 5.636 8.786 8.786 0 0 1-.147 3.416 11.672 11.672 0 0 1-4.058 6.839 6.641 6.641 0 0 1-8.213.527c-1.472-.9-2.825-1.963-4.212-2.98a122.677 122.677 0 0 0-10.978-7.23 20.471 20.471 0 0 1-1.835-1.232 7.552 7.552 0 0 1-3.3-6.648" fill="#fff"/><path data-name="パス 93" d="M98.292 222.142a11.5 11.5 0 0 1-6.087-1.666 11.272 11.272 0 0 1-5.1-7.33 82.12 82.12 0 0 1-.714-3.506l-.327-1.7c-.3-1.5-.737-2.974-1.165-4.445l-.518-1.809a12.4 12.4 0 0 1 1.2-10.063 11.98 11.98 0 0 1 7.734-5.484 14.305 14.305 0 0 1 3.239-.392 11.263 11.263 0 0 1 7.244 2.572 12.167 12.167 0 0 1 3.292 4.408 32.7 32.7 0 0 1 1.777 5.2 76.469 76.469 0 0 1 2.206 10.1l.1.8c.022.208.039.47.039.678a12.3 12.3 0 0 1-10.612 12.453 15.276 15.276 0 0 1-2.311.184" fill="#302c2b"/><path data-name="パス 94" d="M84.653 224.745a10.431 10.431 0 0 1-9.526-6.176 15.791 15.791 0 0 1-1.254-3.515 88.473 88.473 0 0 0-2.841-9.63 14.458 14.458 0 0 1-.78-3.485 11.963 11.963 0 0 1 8.93-12.869 14.207 14.207 0 0 1 3.829-.552 11.056 11.056 0 0 1 10.017 6.142 25.043 25.043 0 0 1 1.463 3.355 76.715 76.715 0 0 1 3.341 11.6 12.2 12.2 0 0 1-9.544 14.774 13.6 13.6 0 0 1-3.139.351c.017 0-.242.01-.5.01" fill="#302c2b"/><path data-name="パス 95" d="M84.253 218.8a4.5 4.5 0 0 1-4.593-2.858 9.841 9.841 0 0 1-.786-2.2 95.016 95.016 0 0 0-3.024-10.267 8.615 8.615 0 0 1-.473-2.061 6.063 6.063 0 0 1 4.616-6.633c3.1-.864 5.524-.073 7.035 2.711a18.722 18.722 0 0 1 1.1 2.557 71.813 71.813 0 0 1 3.094 10.706 6.334 6.334 0 0 1-5.083 7.854 7.819 7.819 0 0 1-1.889.192" fill="#fff"/><path data-name="パス 96" d="M173.468 191.248a12.173 12.173 0 0 1-2.973-.375 10.257 10.257 0 0 1-6.679-5.141 13.439 13.439 0 0 1-1.362-3.469c-.684-2.934-1.561-5.831-2.249-8.023a18.406 18.406 0 0 1-.586-2.409 11.391 11.391 0 0 1 10.22-13.441 13.453 13.453 0 0 1 1.415-.075 10.733 10.733 0 0 1 9.987 6.374 41.413 41.413 0 0 1 3.007 9.214 20 20 0 0 1 .695 5.5 12.014 12.014 0 0 1-3.441 8.517 11.218 11.218 0 0 1-8.034 3.331" fill="#302c2b"/><path data-name="パス 97" d="M355.133 190.361a12.05 12.05 0 0 1-3.466-.513 10.416 10.416 0 0 1-6.582-5.76 19.4 19.4 0 0 1-1.156-3.5c-.545-2.338-1.127-4.41-1.785-6.351a21.169 21.169 0 0 1-.721-2.721 11.388 11.388 0 0 1 11.469-14.047h.013a10.725 10.725 0 0 1 9.69 5.748 31.017 31.017 0 0 1 2.552 6.707 37.958 37.958 0 0 1 1.489 7.85 11.679 11.679 0 0 1-3.068 8.922 11.545 11.545 0 0 1-8.435 3.668" fill="#302c2b"/><path data-name="パス 98" d="M76.578 191.665a10.548 10.548 0 0 1-9.945-6.482 16.107 16.107 0 0 1-.968-2.848c-.562-2.552-1.357-5.134-2.059-7.322a20.133 20.133 0 0 1-.66-2.626 11.369 11.369 0 0 1 9.894-13.512 13.7 13.7 0 0 1 1.752-.116 10.686 10.686 0 0 1 9.851 6.179 40.452 40.452 0 0 1 3.119 9.427 20.979 20.979 0 0 1 .692 5.22c.266 6.163-3.682 10.941-9.917 11.941a11.348 11.348 0 0 1-1.759.139" fill="#302c2b"/><path data-name="パス 99" d="M366.724 188.581a11.38 11.38 0 0 1-4.491-.9 10.381 10.381 0 0 1-5.663-5.793 18.012 18.012 0 0 1-.8-2.567 62.919 62.919 0 0 0-1.976-7.055 14.082 14.082 0 0 1-.89-5.336 11.509 11.509 0 0 1 10.48-11.151 12.584 12.584 0 0 1 1.284-.064 10.837 10.837 0 0 1 9.766 5.95 21.312 21.312 0 0 1 1.312 2.878 56.381 56.381 0 0 1 2.437 9.405 15.062 15.062 0 0 1 .178 1.9c.006.071.024.468.028.539a11.452 11.452 0 0 1-3.1 8.6 11.873 11.873 0 0 1-8.569 3.593" fill="#302c2b"/><path data-name="パス 100" d="M372.556 176.638a4.982 4.982 0 0 1-1.3 3.844 5.4 5.4 0 0 1-5.779 1.194 3.919 3.919 0 0 1-2.171-2.22 11.381 11.381 0 0 1-.5-1.641 67.651 67.651 0 0 0-2.2-7.788 7.584 7.584 0 0 1-.5-2.882 4.965 4.965 0 0 1 4.609-4.875 4.36 4.36 0 0 1 4.648 2.472 14.92 14.92 0 0 1 .921 2 49.212 49.212 0 0 1 2.148 8.3 15.828 15.828 0 0 1 .116 1.589" fill="#fff"/><path data-name="パス 101" d="M88.2 189.919a10.627 10.627 0 0 1-9.755-6.164 16.149 16.149 0 0 1-1.13-3.47 53.279 53.279 0 0 0-1.994-7.048 14.042 14.042 0 0 1-.764-4.867 11.006 11.006 0 0 1 3.245-7.854 12.115 12.115 0 0 1 11.586-3.076 10.406 10.406 0 0 1 5.823 4.174 18.446 18.446 0 0 1 2.639 5.587 55.323 55.323 0 0 1 1.956 8.082c.072.472.124.948.175 1.42 0 0 .09.888.093 1.091.154 6.609-4.221 11.466-10.885 12.08-.32.03-.652.045-.989.045" fill="#302c2b"/><path data-name="パス 102" d="M94.5 177.944c.056 2.426-1.033 5.069-4.964 5.432a4.183 4.183 0 0 1-4.224-2.371 9.865 9.865 0 0 1-.669-2.1 60.458 60.458 0 0 0-2.239-7.9 7.626 7.626 0 0 1-.372-2.652c-.006-3.356 3.469-5.441 6.646-4.6a4.019 4.019 0 0 1 2.193 1.688 12.117 12.117 0 0 1 1.686 3.663 49.76 49.76 0 0 1 1.745 7.142c.083.565.133 1.135.2 1.7" fill="#fff"/><path data-name="パス 103" d="M185.2 189.472a12.2 12.2 0 0 1-3.466-.51 10.542 10.542 0 0 1-7.074-6.838 25.627 25.627 0 0 1-.74-2.683 55.931 55.931 0 0 0-1.865-6.542 14.165 14.165 0 0 1-.809-4.837 11.123 11.123 0 0 1 3.224-7.989 12.068 12.068 0 0 1 8.542-3.489 12.613 12.613 0 0 1 2.722.3 10.016 10.016 0 0 1 5.326 3.223 13.821 13.821 0 0 1 2.455 3.919 50.608 50.608 0 0 1 3.091 11.515 12.87 12.87 0 0 1 .12 1.585 12.224 12.224 0 0 1-3.412 8.985 11.338 11.338 0 0 1-8.114 3.361" fill="#302c2b"/><path data-name="パス 104" d="M191.175 177.491c.033 3.839-3.12 6.248-6.625 5.212a4.047 4.047 0 0 1-2.763-2.732 23.313 23.313 0 0 1-.627-2.369 60.38 60.38 0 0 0-2.008-6.946 7.75 7.75 0 0 1-.413-2.647c-.03-3.472 3.35-5.465 6.541-4.754a3.476 3.476 0 0 1 1.845 1.157 7.273 7.273 0 0 1 1.307 2.064 44.339 44.339 0 0 1 2.689 10.045 8.681 8.681 0 0 1 .054.97" fill="#fff"/><path data-name="パス 105" d="M81.249 179.678c.185 2.684-1.168 4.885-4.417 5.4a4.221 4.221 0 0 1-4.65-2.415 10.388 10.388 0 0 1-.616-1.732c-.59-2.683-1.381-5.308-2.221-7.921a13.885 13.885 0 0 1-.449-1.786 4.848 4.848 0 0 1 4.314-5.881 4.353 4.353 0 0 1 4.95 2.561 35.107 35.107 0 0 1 2.6 8.047 13.926 13.926 0 0 1 .49 3.722" fill="#fff"/><path data-name="パス 106" d="M177.76 179.1c.039 3.879-2.886 6.315-6.338 5.448a3.822 3.822 0 0 1-2.548-1.945 7.239 7.239 0 0 1-.729-1.816c-.668-2.867-1.5-5.689-2.376-8.5a11.952 11.952 0 0 1-.382-1.546 4.877 4.877 0 0 1 4.459-5.863 4.368 4.368 0 0 1 4.876 2.69 35.561 35.561 0 0 1 2.5 7.8 14.291 14.291 0 0 1 .536 3.725" fill="#fff"/><path data-name="パス 107" d="M351.913 163.994a4.1 4.1 0 0 1 3.96 2.384 26.717 26.717 0 0 1 2.07 5.628 30.73 30.73 0 0 1 1.173 6.251 5.046 5.046 0 0 1-6.582 5.341 3.809 3.809 0 0 1-2.505-2.175 12.671 12.671 0 0 1-.759-2.328 74.108 74.108 0 0 0-1.96-6.96 15.045 15.045 0 0 1-.5-1.894c-.721-3.6 1.433-6.226 5.1-6.247" fill="#fff"/><path data-name="パス 108" d="M106.893 208.729a6.427 6.427 0 0 1-5.564 6.58 6.318 6.318 0 0 1-4.418-.68 5.432 5.432 0 0 1-2.409-3.614c-.388-1.663-.664-3.352-1-5.027-.457-2.263-1.166-4.458-1.784-6.678a6.527 6.527 0 0 1 .551-5.383 6.1 6.1 0 0 1 4.008-2.792 5.889 5.889 0 0 1 5.373.984 6.379 6.379 0 0 1 1.681 2.333 27.787 27.787 0 0 1 1.453 4.331 69.907 69.907 0 0 1 2.029 9.249c.039.294.069.59.082.7" fill="#fff"/></g></svg>