<svg xmlns="http://www.w3.org/2000/svg" width="286" height="122.614"><defs><clipPath id="a"><path data-name="長方形 53" fill="none" d="M0 0h98.623v122.614H0z"/></clipPath></defs><path data-name="パス 63" d="M0 0h286v122.614H0Z" fill="#fff"/><g data-name="グループ 89" transform="translate(94)" clip-path="url(#a)"><path data-name="パス 62" d="M97.191 4.962h-4.706v-.87h-2.729V2.66h-1.023V0h-4.5v2.66h-1.024v2.3H67.522v-.87H29.464v.87H1.432A1.432 1.432 0 0 0 0 6.394v114.788a1.432 1.432 0 0 0 1.432 1.432h95.759a1.432 1.432 0 0 0 1.432-1.432V6.394a1.432 1.432 0 0 0-1.432-1.432m-7.434-.051h1.91v.051h-1.91Zm-6.548 9.361H67.522V7.826h15.687Zm-17.733 0H31.51V7.826h33.966Zm0 6.6H31.51v-3.736h33.966Zm2.046 2.046v-5.78h15.687v37.5l1.7 2.876v52.932h-71.2v-93.3h15.755v5.78Zm28.236 96.833H2.865V7.826h26.6v6.445H12.277a1.432 1.432 0 0 0-1.433 1.429v96.168a1.432 1.432 0 0 0 1.432 1.432h74.07a1.432 1.432 0 0 0 1.432-1.432v-53.9l1.977-3.337V7.826h1.91v7.724h.818V7.826h3.274Z" fill="#595959"/></g></svg>