<svg xmlns="http://www.w3.org/2000/svg" width="275.135" height="127.36"><defs><clipPath id="a"><path data-name="長方形 16" fill="none" d="M0 0h158.309v91.394H0z"/></clipPath><clipPath id="b"><path data-name="長方形 17" fill="none" d="M0 0h142.03v93.581H0z"/></clipPath></defs><g data-name="グループ 20"><g data-name="グループ 17"><g data-name="グループ 16" clip-path="url(#a)" fill="#595959"><path data-name="パス 51" d="M150.541 11.415c.827.491 5.726 3.879 1.855 13.28a16.52 16.52 0 0 1-3.835 2.736c-11.471 6.86-40.394 18.713-46.347 20.578-5.141 1.6-55.584-2.367-86.172-5.243l-.417 4.442c6.956.654 59.98 5.576 80.5 5.575a32.632 32.632 0 0 0 7.415-.515c6.079-1.9 33.661-13.165 46.2-20.362a10.293 10.293 0 0 0-.6-1.24l3.852-2.25c.2.335.384.707.569 1.1a9.339 9.339 0 0 0 2.674-2.533 2.182 2.182 0 0 0 .168-.322c5.863-13.874-3.716-19.155-3.813-19.207l-.973 1.806-.982 2.2Z"/><path data-name="パス 52" d="M150.841 31.266c-.35.209-.717.423-1.095.64 2.467 5.972 3.835 20.864-.191 28.931-.983 1.971-8.1 8.663-18.8 14.981-10.334 6.116-21.907 12.2-29.382 10.954-3.767-.628-19.467-1.739-37.647-3.026-21.49-1.521-48.236-3.414-52-4.412-5.654-1.507-6.807-4.078-7.25-9.261-.266-3.234 2.371-5.559 3.527-6.415l93.279 7.877.375-4.445-93.43-7.89c-.414-.444-1.363-1.79-1.881-5.189-.058-.378-.125-.795-.2-1.246-.966-6.015-3.23-20.086 3.831-24.588.47-.273 5.57-3.255 8.679-5.031L60.6 7.282a43.955 43.955 0 0 1 18.771-2.7l67.41 5.152 3.76 1.677-.059-.034 1.142-2.122.836-1.873-4.215-1.88a2.229 2.229 0 0 0-.739-.187L79.71.137a48.455 48.455 0 0 0-20.689 2.972L16.912 19.035a2.14 2.14 0 0 0-.317.148 1135.084 1135.084 0 0 0-8.9 5.162l-.065.039C-1.963 30.439.54 46 1.743 53.472c.071.44.136.848.192 1.213a16.325 16.325 0 0 0 2.153 6.431 11.433 11.433 0 0 0-4.053 9.329c.546 6.38 2.549 11.067 10.55 13.2 3.874 1.027 24.34 2.534 52.831 4.551 17.315 1.226 33.669 2.383 37.229 2.976a16.972 16.972 0 0 0 2.8.222c8.5 0 19.188-5.58 29.591-11.736 9.638-5.7 18.651-13.088 20.516-16.83 4.716-9.451 3.388-26.105.02-33.313-.707.5-1.594 1.08-2.727 1.75"/></g></g><g data-name="グループ 19"><g data-name="グループ 18" clip-path="url(#b)" transform="translate(133.105 33.779)"><path data-name="パス 53" d="M139.919 83.878 74.012 32.893v-5.384c4.976-1.3 12.009-5.3 12.009-13.829C86.021 4.987 80.424 0 70.664 0 64.958 0 56.7 4.971 56.7 13.96h4.461c0-6.63 6.291-9.5 9.5-9.5 10.9 0 10.9 6.939 10.9 9.219 0 8.239-9.681 9.742-10.086 9.8a2.232 2.232 0 0 0-1.923 2.21V33.5L2.186 83.823a5.418 5.418 0 0 0 3.242 9.758H136.6a5.418 5.418 0 0 0 3.315-9.7m-2.41 4.595a.9.9 0 0 1-.905.647H5.428a.956.956 0 0 1-.572-1.723l67.316-50.29 65.016 50.3a.9.9 0 0 1 .32 1.066" fill="#595959"/></g></g></g></svg>