<svg xmlns="http://www.w3.org/2000/svg" width="236.698" height="214.691"><defs><clipPath id="a"><path data-name="長方形 15" fill="none" d="M0 0h236.698v214.691H0z"/></clipPath></defs><g data-name="グループ 15"><g data-name="グループ 14" clip-path="url(#a)" fill="#595959"><path data-name="パス 49" d="M135.553 56.727a28.363 28.363 0 1 0-28.363-28.363 28.4 28.4 0 0 0 28.363 28.363m0-52.445a24.082 24.082 0 1 1-24.082 24.082 24.109 24.109 0 0 1 24.082-24.083"/><path data-name="パス 50" d="M229.7 140.335a9.158 9.158 0 0 0 1.187-5.264c-.283-5.461-3.6-8.715-8.63-8.452l-12.152.213a8.4 8.4 0 0 0 1.1-.826 8.993 8.993 0 0 0 2.914-6.224l.236-4.8a8.586 8.586 0 0 0-7.774-9.2l-16.634-.964-17.425-40.041c-1.669-3.835-6.158-5.947-12.64-5.947h-49.433c-6.67 0-10.923 2-12.641 5.947l-17.425 40.042-16.635.964a8.573 8.573 0 0 0-7.775 9.149l.235 8.99c0 .054.015.1.02.157a13.92 13.92 0 0 0-.78 1.607l-2.491.538a21.1 21.1 0 1 0-36.466.584c-3.417-.231-6.521 1.9-8.352 5.965a8.489 8.489 0 0 0-.041 7.708c-4.224 1.239-8.1 4.735-8.1 9v5.445a9.491 9.491 0 0 0 9.48 9.48h25.079a9.484 9.484 0 0 0 8.563-5.439 9.51 9.51 0 0 0 5.968 5.069v48.519a2.141 2.141 0 0 0 2.141 2.141h163.145a2.141 2.141 0 0 0 2.141-2.141v-48.154h10.7a9.491 9.491 0 0 0 9.48-9.48v-5.445a9.489 9.489 0 0 0-7-9.141M64 110.057l17.949-1.04a2.139 2.139 0 0 0 1.839-1.283l17.95-41.248c.975-2.239 3.907-3.374 8.716-3.374h49.427c2.179 0 7.389.329 8.715 3.374l17.949 41.248a2.141 2.141 0 0 0 1.839 1.283l17.948 1.04a4.3 4.3 0 0 1 3.745 4.714l-.236 4.8a4.688 4.688 0 0 1-1.5 3.25 3.655 3.655 0 0 1-2.648.969l-22.5-1.3c-1.143-.077-6.554-2-8.906-5.635l-3.835-8.813a2.14 2.14 0 0 0-4.1.854v17.716c-3.211-.105-6.739-.222-10.567-.35a14.172 14.172 0 0 0-13.269-9.426h-37.753v-9.737a2.141 2.141 0 0 0-4.1-.854l-4.609 10.591H68.5a14 14 0 0 0-8.127 2.63l-.123-4.691a4.3 4.3 0 0 1 3.75-4.718m126.2 17.125-2.835.05c-.639.01-6.653-.161-16.744-.484v-7.668c3.223 5.082 10.1 7.554 12.316 7.681ZM34.557 99.095a16.82 16.82 0 1 1-16.82 16.82 16.839 16.839 0 0 1 16.82-16.82M12.043 134.53c.783-1.738 2.551-4.447 5.561-3.092 4.081 1.908 8.683 4.136 9.454 4.627a2.14 2.14 0 0 0 2.207.278 21.087 21.087 0 0 0 19.466-4.811c4.9-1.084 8.783-1.911 8.787-1.912a2.141 2.141 0 0 0 1.606-1.484 9.854 9.854 0 0 1 9.376-7.023h74.006a9.852 9.852 0 0 1 9.552 7.693 2.142 2.142 0 0 0 2.018 1.678c20.9.705 32.132 1.046 33.422 1.026l34.863-.612h.074c.972-.048 3.932-.2 4.171 4.4.149 2.87-1.209 4.4-3.979 4.543-11.439.294-33.381.849-34.554.849h-39.754a5.131 5.131 0 0 1-1.8-.333 2.134 2.134 0 0 0-1.339-.052 9.711 9.711 0 0 1-2.673.385H68.5a9.745 9.745 0 0 1-4.676-1.2 2.141 2.141 0 0 0-1.443-.225L34.5 144.743c-2.522.5-10.956.662-13.173-.23l-7.1-4.15a1.555 1.555 0 0 0-.2-.1c-2.519-1.133-3.187-3.062-1.985-5.732M39.8 148.357c-.018.294-.041.652-.041 1.119v5.445a5.205 5.205 0 0 1-5.2 5.2H9.48a5.205 5.205 0 0 1-5.2-5.2v-5.445c0-2.629 4.028-5.2 7.034-5.2a2.135 2.135 0 0 0 .833-.168l.015.007 7.122 4.163a2.158 2.158 0 0 0 .2.1c1.779.8 5.108 1.054 8.294 1.054a50.753 50.753 0 0 0 7.551-.489l4.453-.876.03.043c0 .072-.011.152-.017.242m172.437 62.053H53.368v-45.333h158.865Zm20.184-55.489a5.205 5.205 0 0 1-5.2 5.2H51.682a5.205 5.205 0 0 1-5.2-5.2v-7.892a2.1 2.1 0 0 0-.028-.272l16.026-3.154a14.032 14.032 0 0 0 6.02 1.363h74.006a13.835 13.835 0 0 0 3.192-.378 9.3 9.3 0 0 0 2.618.378h39.756c1.52 0 33.311-.815 34.721-.853a10.217 10.217 0 0 0 2.844-.544 2.127 2.127 0 0 0 1.579.707 5.205 5.205 0 0 1 5.2 5.2Z"/></g></g></svg>