<svg data-name="グループ 22" xmlns="http://www.w3.org/2000/svg" width="240.707" height="199.013"><defs><clipPath id="a"><path data-name="長方形 18" fill="none" d="M0 0h240.707v199.013H0z"/></clipPath></defs><g data-name="グループ 21" clip-path="url(#a)" fill="#595959"><path data-name="パス 54" d="M30.322 44.294h.016A22.147 22.147 0 0 0 46.009 6.5 22 22 0 0 0 30.353 0h-.017a22.146 22.146 0 0 0-15.669 37.8 22 22 0 0 0 15.655 6.5M17.809 9.6a17.614 17.614 0 0 1 12.527-5.183h.013a17.73 17.73 0 0 1 12.517 30.276 17.612 17.612 0 0 1-12.527 5.184h-.013A17.73 17.73 0 0 1 17.809 9.6"/><path data-name="パス 55" d="M188.297 122.075a2.209 2.209 0 0 0 2.208-2.206l.008-11.439a2.208 2.208 0 0 0-2.206-2.21l-140.074-.1a2.209 2.209 0 0 0-2.208 2.206l-.008 11.441a2.209 2.209 0 0 0 2.206 2.21l46.886.032-.052 74.763a2.208 2.208 0 0 0 2.206 2.21l41.948.029a2.209 2.209 0 0 0 2.208-2.207l.051-74.763Zm-51.29 72.52-37.532-.026.049-70.665 37.531.027ZM50.44 110.54l135.657.095-.005 7.023-135.657-.094Z"/><path data-name="パス 56" d="m77.177 126.867-36.366-5.661.03-41.634C59.6 96.891 60.5 97.081 61.371 97.265l26.889 5.666a9.645 9.645 0 0 0 11.27-5.941 8.621 8.621 0 0 0-.669-7.149 9.421 9.421 0 0 0-6.238-4.524c-8.149-2.025-21.232-5.335-23.618-6.079L40.137 51.977l-.277-.387c-2-2.8-4.27-5.965-8.776-5.968h-7.526a18.2 18.2 0 0 0-5.976.609 5.3 5.3 0 0 0-3.625 5.411l-3.615 85.925v.091a9.57 9.57 0 0 0 9.729 9.354l25.356.52-43.206-.03a2.209 2.209 0 0 0-2.208 2.207L0 161.693a2.208 2.208 0 0 0 2.207 2.21l19.244.013-.023 32.494a2.209 2.209 0 0 0 2.207 2.21h7.571a2.208 2.208 0 0 0 2.208-2.207l.023-32.493 21.767.015a2.209 2.209 0 0 0 2.208-2.207l.008-11.988a2.2 2.2 0 0 0-1.275-2l8.989.185a2.1 2.1 0 0 1 2.207 1.958l-.027 39.267a6.784 6.784 0 0 0 2.168 4.974 7.373 7.373 0 0 0 5.083 2H81.372a7.37 7.37 0 0 0 5.079-1.992 6.787 6.787 0 0 0 2.175-4.971l.035-51.166a10.807 10.807 0 0 0-3.459-7.92 11.889 11.889 0 0 0-8.027-3.219M29 194.206h-3.155l.02-29.654h3.155Zm24-34.689-48.582-.03.005-7.571 48.582.035Zm31.211 29.647a2.41 2.41 0 0 1-.787 1.759 2.97 2.97 0 0 1-2.051.791h-6.8a2.97 2.97 0 0 1-2.054-.794 2.407 2.407 0 0 1-.784-1.76l.027-39.267a6.5 6.5 0 0 0-6.577-6.376l-45.068-.924a5.172 5.172 0 0 1-5.36-4.894l3.615-85.918v-.091c0-1.053.3-1.16.707-1.309a15.82 15.82 0 0 1 4.474-.347h7.526c2.138 0 3.249 1.415 5.188 4.123l.407.567a2.167 2.167 0 0 0 .275.314L66.3 82.752c.529.5.82.775 25.3 6.858a.959.959 0 0 0 .077.018 5.007 5.007 0 0 1 3.347 2.391 4.26 4.26 0 0 1 .336 3.533 5.309 5.309 0 0 1-6.183 3.058l-26.595-5.6c-.955-.644-5.058-3.986-22.44-20.1a2.208 2.208 0 0 0-3.71 1.617l-.034 48.573a2.208 2.208 0 0 0 1.869 2.183l38.4 5.977a2.164 2.164 0 0 0 .338.026 7.5 7.5 0 0 1 5.176 2.015 6.432 6.432 0 0 1 2.075 4.706Z"/><path data-name="パス 57" d="M210.368 44.294h.017a22.147 22.147 0 0 0 15.634-37.818A22 22 0 0 0 210.371 0h-.017a22.147 22.147 0 0 0-15.634 37.818 22 22 0 0 0 15.648 6.476M197.824 9.618a17.614 17.614 0 0 1 12.534-5.2h.013a17.73 17.73 0 0 1 12.545 30.259 17.614 17.614 0 0 1-12.534 5.2h-.013a17.73 17.73 0 0 1-12.545-30.259"/><path data-name="パス 58" d="M240.701 149.704a2.209 2.209 0 0 0-2.208-2.207l-43.2.03 25.31-.519a9.582 9.582 0 0 0 9.773-9.354v-.092l-3.616-85.925a5.3 5.3 0 0 0-3.625-5.411 18.411 18.411 0 0 0-5.976-.609l-7.526.005c-4.506 0-6.774 3.172-8.776 5.969l-.277.385-28.879 27.26c-2.386.745-15.469 4.054-23.618 6.079a9.42 9.42 0 0 0-6.238 4.526 8.621 8.621 0 0 0-.669 7.148 9.644 9.644 0 0 0 11.269 5.941l26.89-5.666c.871-.184 1.77-.374 20.531-17.692l.029 41.634-36.365 5.661a11.885 11.885 0 0 0-8.027 3.22 10.8 10.8 0 0 0-3.459 7.919l.035 51.167a6.784 6.784 0 0 0 2.175 4.97 7.371 7.371 0 0 0 5.078 1.992H166.139a7.373 7.373 0 0 0 5.083-2 6.782 6.782 0 0 0 2.168-4.973l-.027-39.268a1.836 1.836 0 0 1 .6-1.338 2.361 2.361 0 0 1 1.651-.62l8.945-.184a2.2 2.2 0 0 0-1.275 2l.009 11.988a2.207 2.207 0 0 0 2.208 2.207l21.767-.015.022 32.493a2.209 2.209 0 0 0 2.208 2.208l7.571-.005a2.209 2.209 0 0 0 2.207-2.21l-.023-32.494 19.244-.014a2.208 2.208 0 0 0 2.207-2.21Zm-65.135-6.188a6.728 6.728 0 0 0-4.637 1.824 6.209 6.209 0 0 0-1.984 4.553l.027 39.268a2.408 2.408 0 0 1-.784 1.76 2.972 2.972 0 0 1-2.053.793h-6.8a2.971 2.971 0 0 1-2.051-.791 2.411 2.411 0 0 1-.786-1.758l-.035-51.166a6.432 6.432 0 0 1 2.075-4.706 7.5 7.5 0 0 1 5.176-2.015 2.1 2.1 0 0 0 .338-.026l38.395-5.977a2.207 2.207 0 0 0 1.869-2.183l-.033-48.573a2.208 2.208 0 0 0-3.709-1.618c-17.383 16.114-21.486 19.456-22.441 20.1l-26.595 5.6a5.3 5.3 0 0 1-6.182-3.058 4.262 4.262 0 0 1 .335-3.533 5.007 5.007 0 0 1 3.347-2.391l.078-.018c24.478-6.083 24.769-6.359 25.3-6.858l29.345-27.71a2.208 2.208 0 0 0 .275-.314l.407-.567c1.938-2.708 3.049-4.122 5.188-4.123l7.526-.005a16.185 16.185 0 0 1 4.474.347c.41.148.707.256.707 1.309v.091l3.615 85.918a5.185 5.185 0 0 1-5.4 4.895Zm36.135 50.69-.02-29.654h3.155l.02 29.654Zm-24-34.685v-7.571l48.582-.035.005 7.571Z"/></g></svg>